999
dxfrw 0.6.3
  0
SECTION
  2
HEADER
  9
$ACADVER
  1
AC1021
  9
$DWGCODEPAGE
  3
ANSI_932
  9
$INSBASE
 10
0
 20
0
 30
0
  9
$EXTMIN
 10
-137.1048309943473
 20
-66.05532784134118
 30
0
  9
$EXTMAX
 10
537
 20
348.7142803633755
 30
0
  9
$LIMMIN
 10
0
 20
0
  9
$LIMMAX
 10
12
 20
9
  9
$ORTHOMODE
 70
    1
  9
$REGENMODE
 70
    1
  9
$FILLMODE
 70
    1
  9
$QTEXTMODE
 70
    0
  9
$MIRRTEXT
 70
    1
  9
$LTSCALE
 40
1
  9
$ATTMODE
 70
    1
  9
$TEXTSIZE
 40
2.5
  9
$TRACEWID
 40
0.05
  9
$TEXTSTYLE
  7
Standard
  9
$CLAYER
  8
0
  9
$CELTYPE
  6
CONTINUOUS
  9
$CECOLOR
 62
  256
  9
$CELTSCALE
 40
1
  9
$DISPSILH
 70
    0
  9
$DIMSCALE
 40
1
  9
$DIMASZ
 40
2.5
  9
$DIMEXO
 40
0.625
  9
$DIMDLI
 40
0.38
  9
$DIMRND
 40
0
  9
$DIMDLE
 40
0
  9
$DIMEXE
 40
1.25
  9
$DIMTP
 40
0
  9
$DIMTM
 40
0
  9
$DIMTXT
 40
2.5
  9
$DIMCEN
 40
0.09
  9
$DIMTSZ
 40
0
  9
$DIMTOL
 70
    0
  9
$DIMLIM
 70
    0
  9
$DIMTIH
 70
    1
  9
$DIMTOH
 70
    1
  9
$DIMSE1
 70
    0
  9
$DIMSE2
 70
    0
  9
$DIMTAD
 70
    0
  9
$DIMZIN
 70
    0
  9
$DIMBLK
  1

  9
$DIMASO
 70
    1
  9
$DIMSHO
 70
    1
  9
$DIMPOST
  1

  9
$DIMAPOST
  1

  9
$DIMALT
 70
    0
  9
$DIMALTD
 70
    2
  9
$DIMALTF
 40
25.4
  9
$DIMLFAC
 40
1
  9
$DIMTOFL
 70
    0
  9
$DIMTVP
 40
0
  9
$DIMTIX
 70
    0
  9
$DIMSOXD
 70
    0
  9
$DIMSAH
 70
    0
  9
$DIMBLK1
  1

  9
$DIMBLK2
  1

  9
$DIMSTYLE
  2
Standard
  9
$DIMCLRD
 70
    0
  9
$DIMCLRE
 70
    0
  9
$DIMCLRT
 70
    0
  9
$DIMTFAC
 40
1
  9
$DIMGAP
 40
0.625
  9
$DIMJUST
 70
    0
  9
$DIMSD1
 70
    0
  9
$DIMSD2
 70
    0
  9
$DIMTOLJ
 70
    1
  9
$DIMTZIN
 70
    0
  9
$DIMALTZ
 70
    0
  9
$DIMALTTZ
 70
    0
  9
$DIMUPT
 70
    0
  9
$DIMDEC
 70
    2
  9
$DIMTDEC
 70
    4
  9
$DIMALTU
 70
    2
  9
$DIMALTTD
 70
    2
  9
$DIMTXSTY
  7
Standard
  9
$DIMAUNIT
 70
    0
  9
$DIMADEC
 70
    0
  9
$DIMALTRND
 40
0
  9
$DIMAZIN
 70
    0
  9
$DIMDSEP
 70
   46
  9
$DIMATFIT
 70
    3
  9
$DIMFRAC
 70
    0
  9
$DIMLDRBLK
  1

  9
$DIMLUNIT
 70
    2
  9
$DIMLWD
 70
   -2
  9
$DIMLWE
 70
   -2
  9
$DIMTMOVE
 70
    0
  9
$DIMFXL
 40
1
  9
$DIMFXLON
 70
    0
  9
$DIMJOGANG
 40
0.7854
  9
$DIMTFILL
 70
    0
  9
$DIMTFILLCLR
 70
    0
  9
$DIMARCSYM
 70
    0
  9
$DIMLTYPE
  6

  9
$DIMLTEX1
  6

  9
$DIMLTEX2
  6

  9
$LUNITS
 70
    2
  9
$LUPREC
 70
    4
  9
$SKETCHINC
 40
0.1
  9
$FILLETRAD
 40
10
  9
$AUNITS
 70
    0
  9
$AUPREC
 70
    0
  9
$MENU
  1
.
  9
$ELEVATION
 40
0
  9
$PELEVATION
 40
0
  9
$THICKNESS
 40
0
  9
$LIMCHECK
 70
    0
  9
$CHAMFERA
 40
0
  9
$CHAMFERB
 40
0
  9
$CHAMFERC
 40
0
  9
$CHAMFERD
 40
0
  9
$SKPOLY
 70
    0
  9
$USRTIMER
 70
    1
  9
$ANGBASE
 50
0
  9
$ANGDIR
 70
    0
  9
$PDMODE
 70
    0
  9
$PDSIZE
 40
0
  9
$PLINEWID
 40
0
  9
$SPLFRAME
 70
    0
  9
$SPLINETYPE
 70
    6
  9
$SPLINESEGS
 70
    8
  9
$HANDSEED
  5
20000
  9
$SURFTAB1
 70
    6
  9
$SURFTAB2
 70
    6
  9
$SURFTYPE
 70
    6
  9
$SURFU
 70
    6
  9
$SURFV
 70
    6
  9
$UCSBASE
  2

  9
$UCSNAME
  2

  9
$UCSORG
 10
0
 20
0
 30
0
  9
$UCSXDIR
 10
1
 20
0
 30
0
  9
$UCSYDIR
 10
0
 20
1
 30
0
  9
$UCSORTHOREF
  2

  9
$UCSORTHOVIEW
 70
    0
  9
$UCSORGTOP
 10
0
 20
0
 30
0
  9
$UCSORGBOTTOM
 10
0
 20
0
 30
0
  9
$UCSORGLEFT
 10
0
 20
0
 30
0
  9
$UCSORGRIGHT
 10
0
 20
0
 30
0
  9
$UCSORGFRONT
 10
0
 20
0
 30
0
  9
$UCSORGBACK
 10
0
 20
0
 30
0
  9
$PUCSBASE
  2

  9
$PUCSNAME
  2

  9
$PUCSORG
 10
0
 20
0
 30
0
  9
$PUCSXDIR
 10
1
 20
0
 30
0
  9
$PUCSYDIR
 10
0
 20
1
 30
0
  9
$PUCSORTHOREF
  2

  9
$PUCSORTHOVIEW
 70
    0
  9
$PUCSORGTOP
 10
0
 20
0
 30
0
  9
$PUCSORGBOTTOM
 10
0
 20
0
 30
0
  9
$PUCSORGLEFT
 10
0
 20
0
 30
0
  9
$PUCSORGRIGHT
 10
0
 20
0
 30
0
  9
$PUCSORGFRONT
 10
0
 20
0
 30
0
  9
$PUCSORGBACK
 10
0
 20
0
 30
0
  9
$USERI1
 70
    0
  9
$USERI2
 70
    0
  9
$USERI3
 70
    0
  9
$USERI4
 70
    0
  9
$USERI5
 70
    0
  9
$USERR1
 40
0
  9
$USERR2
 40
0
  9
$USERR3
 40
0
  9
$USERR4
 40
0
  9
$USERR5
 40
0
  9
$WORLDVIEW
 70
    1
  9
$SHADEDGE
 70
    3
  9
$SHADEDIF
 70
   70
  9
$TILEMODE
 70
    1
  9
$MAXACTVP
 70
   64
  9
$PINSBASE
 10
0
 20
0
 30
0
  9
$PLIMCHECK
 70
    0
  9
$PEXTMIN
 10
1e+20
 20
1e+20
 30
1e+20
  9
$PEXTMAX
 10
-1e+20
 20
-1e+20
 30
-1e+20
  9
$GRIDMODE
 70
    1
  9
$SNAPSTYLE
 70
    0
  9
$PLIMMIN
 10
0
 20
0
  9
$PLIMMAX
 10
210
 20
297
  9
$UNITMODE
 70
    0
  9
$VISRETAIN
 70
    1
  9
$PLINEGEN
 70
    0
  9
$PSLTSCALE
 70
    1
  9
$TREEDEPTH
 70
 3020
  9
$CMLSTYLE
  2
Standard
  9
$CMLJUST
 70
    0
  9
$CMLSCALE
 40
1
  9
$PROXYGRAPHICS
 70
    1
  9
$MEASUREMENT
 70
    0
  9
$CELWEIGHT
370
   -1
  9
$ENDCAPS
280
    0
  9
$JOINSTYLE
280
    0
  9
$LWDISPLAY
290
    0
  9
$INSUNITS
 70
    4
  9
$HYPERLINKBASE
  1

  9
$STYLESHEET
  1

  9
$XEDIT
290
    1
  9
$CEPSNTYPE
380
    0
  9
$PSTYLEMODE
290
    1
  9
$EXTNAMES
290
    1
  9
$PSVPSCALE
 40
0
  9
$OLESTARTUP
290
    0
  9
$SORTENTS
280
  127
  9
$INDEXCTL
280
    0
  9
$HIDETEXT
280
    1
  9
$XCLIPFRAME
290
    0
  9
$HALOGAP
280
    0
  9
$OBSCOLOR
 70
  257
  9
$OBSLTYPE
280
    0
  9
$INTERSECTIONDISPLAY
280
    0
  9
$INTERSECTIONCOLOR
 70
  257
  9
$DIMASSOC
280
    1
  9
$PROJECTNAME
  1

  9
$CAMERADISPLAY
290
    0
  9
$LENSLENGTH
 40
50
  9
$CAMERAHEIGHT
 40
0
  9
$STEPSPERSEC
 40
2
  9
$STEPSIZE
 40
50
  9
$3DDWFPREC
 40
2
  9
$PSOLWIDTH
 40
5
  9
$PSOLHEIGHT
 40
80
  9
$LOFTANG1
 40
1.570796326794897
  9
$LOFTANG2
 40
1.570796326794897
  9
$LOFTMAG1
 40
0
  9
$LOFTMAG2
 40
0
  9
$LOFTPARAM
 70
    7
  9
$LOFTNORMALS
280
    1
  9
$LATITUDE
 40
1
  9
$LONGITUDE
 40
1
  9
$NORTHDIRECTION
 40
0
  9
$TIMEZONE
 70
-8000
  9
$LIGHTGLYPHDISPLAY
280
    1
  9
$TILEMODELIGHTSYNCH
280
    1
  9
$SOLIDHIST
280
    1
  9
$SHOWHIST
280
    1
  9
$DWFFRAME
280
    2
  9
$DGNFRAME
280
    0
  9
$REALWORLDSCALE
290
    1
  9
$INTERFERECOLOR
 62
    1
  9
$CSHADOW
280
    0
  9
$SHADOWPLANELOCATION
 40
0
  0
ENDSEC
  0
SECTION
  2
CLASSES
  0
ENDSEC
  0
SECTION
  2
TABLES
  0
TABLE
  2
VPORT
  5
8
330
0
100
AcDbSymbolTable
 70
    1
  0
VPORT
  5
31
330
2
100
AcDbSymbolTableRecord
100
AcDbViewportTableRecord
  2
*ACTIVE
 70
    0
 10
0
 20
0
 11
1
 21
1
 12
214.1700053840785
 22
90.43459068809415
 13
0
 23
0
 14
10
 24
10
 15
10
 25
10
 16
0
 26
0
 36
1
 17
0
 27
0
 37
0
 40
370.2268080877212
 41
1.707231040564374
 42
50
 43
0
 44
0
 50
0
 51
0
 71
    0
 72
  100
 73
    1
 74
    3
 75
    0
 76
    1
 77
    0
 78
    0
281
    0
 65
    1
110
0
120
0
130
0
111
1
121
0
131
0
112
0
122
1
132
0
 79
    0
146
0
348
10020
 60
    7
 61
    5
292
1
282
    1
141
0
142
0
 63
  250
421
3358443
  0
ENDTAB
  0
TABLE
  2
LTYPE
  5
5
330
0
100
AcDbSymbolTable
 70
    4
  0
LTYPE
  5
14
330
5
100
AcDbSymbolTableRecord
100
AcDbLinetypeTableRecord
  2
ByBlock
 70
    0
  3

 72
   65
 73
    0
 40
0
  0
LTYPE
  5
15
330
5
100
AcDbSymbolTableRecord
100
AcDbLinetypeTableRecord
  2
ByLayer
 70
    0
  3

 72
   65
 73
    0
 40
0
  0
LTYPE
  5
16
330
5
100
AcDbSymbolTableRecord
100
AcDbLinetypeTableRecord
  2
Continuous
 70
    0
  3
Solid line
 72
   65
 73
    0
 40
0
  0
LTYPE
  5
32
330
5
100
AcDbSymbolTableRecord
100
AcDbLinetypeTableRecord
  2
DOT
 70
    0
  3
Dot . . . . . . . . . . . . . . . . . . . . . .
 72
   65
 73
    2
 40
6.35
 49
0
 74
    0
 49
-6.35
 74
    0
  0
LTYPE
  5
33
330
5
100
AcDbSymbolTableRecord
100
AcDbLinetypeTableRecord
  2
DOTTINY
 70
    0
  3
Dot (.15x) .....................................
 72
   65
 73
    2
 40
0.9525
 49
0
 74
    0
 49
-0.9525
 74
    0
  0
LTYPE
  5
34
330
5
100
AcDbSymbolTableRecord
100
AcDbLinetypeTableRecord
  2
DOT2
 70
    0
  3
Dot (.5x) .....................................
 72
   65
 73
    2
 40
3.175
 49
0
 74
    0
 49
-3.175
 74
    0
  0
LTYPE
  5
35
330
5
100
AcDbSymbolTableRecord
100
AcDbLinetypeTableRecord
  2
DOTX2
 70
    0
  3
Dot (2x) .  .  .  .  .  .  .  .  .  .  .  .  .
 72
   65
 73
    2
 40
12.7
 49
0
 74
    0
 49
-12.7
 74
    0
  0
LTYPE
  5
36
330
5
100
AcDbSymbolTableRecord
100
AcDbLinetypeTableRecord
  2
DASHED
 70
    0
  3
Dashed _ _ _ _ _ _ _ _ _ _ _ _ _ _ _ _ _
 72
   65
 73
    2
 40
19.05
 49
12.7
 74
    0
 49
-6.35
 74
    0
  0
LTYPE
  5
37
330
5
100
AcDbSymbolTableRecord
100
AcDbLinetypeTableRecord
  2
DASHEDTINY
 70
    0
  3
Dashed (.15x) _ _ _ _ _ _ _ _ _ _ _ _ _ _ _ _ _
 72
   65
 73
    2
 40
2.8575
 49
1.905
 74
    0
 49
-0.9525
 74
    0
  0
LTYPE
  5
38
330
5
100
AcDbSymbolTableRecord
100
AcDbLinetypeTableRecord
  2
DASHED2
 70
    0
  3
Dashed (.5x) _ _ _ _ _ _ _ _ _ _ _ _ _ _ _ _ _
 72
   65
 73
    2
 40
9.524999999999999
 49
6.35
 74
    0
 49
-3.175
 74
    0
  0
LTYPE
  5
39
330
5
100
AcDbSymbolTableRecord
100
AcDbLinetypeTableRecord
  2
DASHEDX2
 70
    0
  3
Dashed (2x) ____  ____  ____  ____  ____  ___
 72
   65
 73
    2
 40
38.09999999999999
 49
25.4
 74
    0
 49
-12.7
 74
    0
  0
LTYPE
  5
3A
330
5
100
AcDbSymbolTableRecord
100
AcDbLinetypeTableRecord
  2
DASHDOT
 70
    0
  3
Dash dot __ . __ . __ . __ . __ . __ . __ . __
 72
   65
 73
    4
 40
25.4
 49
12.7
 74
    0
 49
-6.35
 74
    0
 49
0
 74
    0
 49
-6.35
 74
    0
  0
LTYPE
  5
3B
330
5
100
AcDbSymbolTableRecord
100
AcDbLinetypeTableRecord
  2
DASHDOTTINY
 70
    0
  3
Dash dot (.15x) _._._._._._._._._._._._._._._.
 72
   65
 73
    4
 40
3.81
 49
1.905
 74
    0
 49
-0.9525
 74
    0
 49
0
 74
    0
 49
-0.9525
 74
    0
  0
LTYPE
  5
3C
330
5
100
AcDbSymbolTableRecord
100
AcDbLinetypeTableRecord
  2
DASHDOT2
 70
    0
  3
Dash dot (.5x) _._._._._._._._._._._._._._._.
 72
   65
 73
    4
 40
12.7
 49
6.35
 74
    0
 49
-3.175
 74
    0
 49
0
 74
    0
 49
-3.175
 74
    0
  0
LTYPE
  5
3D
330
5
100
AcDbSymbolTableRecord
100
AcDbLinetypeTableRecord
  2
DASHDOTX2
 70
    0
  3
Dash dot (2x) ____  .  ____  .  ____  .  ___
 72
   65
 73
    4
 40
50.8
 49
25.4
 74
    0
 49
-12.7
 74
    0
 49
0
 74
    0
 49
-12.7
 74
    0
  0
LTYPE
  5
3E
330
5
100
AcDbSymbolTableRecord
100
AcDbLinetypeTableRecord
  2
DIVIDE
 70
    0
  3
Divide ____ . . ____ . . ____ . . ____ . . ____
 72
   65
 73
    6
 40
31.75
 49
12.7
 74
    0
 49
-6.35
 74
    0
 49
0
 74
    0
 49
-6.35
 74
    0
 49
0
 74
    0
 49
-6.35
 74
    0
  0
LTYPE
  5
3F
330
5
100
AcDbSymbolTableRecord
100
AcDbLinetypeTableRecord
  2
DIVIDETINY
 70
    0
  3
Divide (.15x) __..__..__..__..__..__..__..__.._
 72
   65
 73
    6
 40
4.7625
 49
1.905
 74
    0
 49
-0.9525
 74
    0
 49
0
 74
    0
 49
-0.9525
 74
    0
 49
0
 74
    0
 49
-0.9525
 74
    0
  0
LTYPE
  5
40
330
5
100
AcDbSymbolTableRecord
100
AcDbLinetypeTableRecord
  2
DIVIDE2
 70
    0
  3
Divide (.5x) __..__..__..__..__..__..__..__.._
 72
   65
 73
    6
 40
15.875
 49
6.35
 74
    0
 49
-3.175
 74
    0
 49
0
 74
    0
 49
-3.175
 74
    0
 49
0
 74
    0
 49
-3.175
 74
    0
  0
LTYPE
  5
41
330
5
100
AcDbSymbolTableRecord
100
AcDbLinetypeTableRecord
  2
DIVIDEX2
 70
    0
  3
Divide (2x) ________  .  .  ________  .  .  _
 72
   65
 73
    6
 40
63.5
 49
25.4
 74
    0
 49
-12.7
 74
    0
 49
0
 74
    0
 49
-12.7
 74
    0
 49
0
 74
    0
 49
-12.7
 74
    0
  0
LTYPE
  5
42
330
5
100
AcDbSymbolTableRecord
100
AcDbLinetypeTableRecord
  2
BORDER
 70
    0
  3
Border __ __ . __ __ . __ __ . __ __ . __ __ .
 72
   65
 73
    6
 40
44.45
 49
12.7
 74
    0
 49
-6.35
 74
    0
 49
12.7
 74
    0
 49
-6.35
 74
    0
 49
0
 74
    0
 49
-6.35
 74
    0
  0
LTYPE
  5
43
330
5
100
AcDbSymbolTableRecord
100
AcDbLinetypeTableRecord
  2
BORDERTINY
 70
    0
  3
Border (.15x) __.__.__.__.__.__.__.__.__.__.__.
 72
   65
 73
    6
 40
6.6675
 49
1.905
 74
    0
 49
-0.9525
 74
    0
 49
1.905
 74
    0
 49
-0.9525
 74
    0
 49
0
 74
    0
 49
-0.9525
 74
    0
  0
LTYPE
  5
44
330
5
100
AcDbSymbolTableRecord
100
AcDbLinetypeTableRecord
  2
BORDER2
 70
    0
  3
Border (.5x) __.__.__.__.__.__.__.__.__.__.__.
 72
   65
 73
    6
 40
22.225
 49
6.35
 74
    0
 49
-3.175
 74
    0
 49
6.35
 74
    0
 49
-3.175
 74
    0
 49
0
 74
    0
 49
-3.175
 74
    0
  0
LTYPE
  5
45
330
5
100
AcDbSymbolTableRecord
100
AcDbLinetypeTableRecord
  2
BORDERX2
 70
    0
  3
Border (2x) ____  ____  .  ____  ____  .  ___
 72
   65
 73
    6
 40
88.89999999999999
 49
25.4
 74
    0
 49
-12.7
 74
    0
 49
25.4
 74
    0
 49
-12.7
 74
    0
 49
0
 74
    0
 49
-12.7
 74
    0
  0
LTYPE
  5
46
330
5
100
AcDbSymbolTableRecord
100
AcDbLinetypeTableRecord
  2
CENTER
 70
    0
  3
Center ____ _ ____ _ ____ _ ____ _ ____ _ ____
 72
   65
 73
    4
 40
50.8
 49
31.75
 74
    0
 49
-6.35
 74
    0
 49
6.35
 74
    0
 49
-6.35
 74
    0
  0
LTYPE
  5
47
330
5
100
AcDbSymbolTableRecord
100
AcDbLinetypeTableRecord
  2
CENTERTINY
 70
    0
  3
Center (.15x) ___ _ ___ _ ___ _ ___ _ ___ _ ___
 72
   65
 73
    4
 40
7.619999999999999
 49
4.7625
 74
    0
 49
-0.9525
 74
    0
 49
0.9525
 74
    0
 49
-0.9525
 74
    0
  0
LTYPE
  5
48
330
5
100
AcDbSymbolTableRecord
100
AcDbLinetypeTableRecord
  2
CENTER2
 70
    0
  3
Center (.5x) ___ _ ___ _ ___ _ ___ _ ___ _ ___
 72
   65
 73
    4
 40
28.575
 49
19.05
 74
    0
 49
-3.175
 74
    0
 49
3.175
 74
    0
 49
-3.175
 74
    0
  0
LTYPE
  5
49
330
5
100
AcDbSymbolTableRecord
100
AcDbLinetypeTableRecord
  2
CENTERX2
 70
    0
  3
Center (2x) ________  __  ________  __  _____
 72
   65
 73
    4
 40
101.6
 49
63.5
 74
    0
 49
-12.7
 74
    0
 49
12.7
 74
    0
 49
-12.7
 74
    0
  0
ENDTAB
  0
TABLE
  2
LAYER
  5
2
330
0
100
AcDbSymbolTable
 70
    1
  0
LAYER
  5
10
330
2
100
AcDbSymbolTableRecord
100
AcDbLayerTableRecord
  2
0
 70
    0
 62
  251
  6
CONTINUOUS
370
    0
390
F
  0
LAYER
  5
4A
330
2
100
AcDbSymbolTableRecord
100
AcDbLayerTableRecord
  2
Defpoints
 70
    0
 62
    7
  6
CONTINUOUS
290
0
370
   -3
390
F
  0
LAYER
  5
4B
330
2
100
AcDbSymbolTableRecord
100
AcDbLayerTableRecord
  2
base01
 70
    4
 62
    1
  6
CONTINUOUS
370
    0
390
F
  0
LAYER
  5
4C
330
2
100
AcDbSymbolTableRecord
100
AcDbLayerTableRecord
  2
base02
 70
    4
 62
    2
  6
CONTINUOUS
370
    0
390
F
  0
LAYER
  5
4D
330
2
100
AcDbSymbolTableRecord
100
AcDbLayerTableRecord
  2
base03
 70
    4
 62
    3
  6
CONTINUOUS
370
    0
390
F
  0
LAYER
  5
4E
330
2
100
AcDbSymbolTableRecord
100
AcDbLayerTableRecord
  2
base04
 70
    4
 62
    4
  6
CONTINUOUS
370
    0
390
F
  0
LAYER
  5
4F
330
2
100
AcDbSymbolTableRecord
100
AcDbLayerTableRecord
  2
base05
 70
    4
 62
    5
  6
CONTINUOUS
370
    0
390
F
  0
LAYER
  5
50
330
2
100
AcDbSymbolTableRecord
100
AcDbLayerTableRecord
  2
base06
 70
    4
 62
    6
  6
CONTINUOUS
370
    0
390
F
  0
LAYER
  5
51
330
2
100
AcDbSymbolTableRecord
100
AcDbLayerTableRecord
  2
base11
 70
    4
 62
    1
  6
CONTINUOUS
370
    0
390
F
  0
LAYER
  5
52
330
2
100
AcDbSymbolTableRecord
100
AcDbLayerTableRecord
  2
base12
 70
    4
 62
    2
  6
CONTINUOUS
370
   -3
390
F
  0
LAYER
  5
53
330
2
100
AcDbSymbolTableRecord
100
AcDbLayerTableRecord
  2
base13
 70
    4
 62
    3
  6
CONTINUOUS
370
   -3
390
F
  0
LAYER
  5
54
330
2
100
AcDbSymbolTableRecord
100
AcDbLayerTableRecord
  2
base14
 70
    4
 62
    4
  6
CONTINUOUS
370
   -3
390
F
  0
LAYER
  5
55
330
2
100
AcDbSymbolTableRecord
100
AcDbLayerTableRecord
  2
dims
 70
    0
 62
  113
  6
CONTINUOUS
370
    0
390
F
  0
LAYER
  5
56
330
2
100
AcDbSymbolTableRecord
100
AcDbLayerTableRecord
  2
panel00
 70
    0
 62
    7
  6
CONTINUOUS
370
   -3
390
F
  0
LAYER
  5
57
330
2
100
AcDbSymbolTableRecord
100
AcDbLayerTableRecord
  2
panel01
 70
    0
 62
    1
  6
CONTINUOUS
370
    0
390
F
  0
LAYER
  5
58
330
2
100
AcDbSymbolTableRecord
100
AcDbLayerTableRecord
  2
panel02
 70
    0
 62
    2
  6
CONTINUOUS
370
    0
390
F
  0
LAYER
  5
59
330
2
100
AcDbSymbolTableRecord
100
AcDbLayerTableRecord
  2
panel03
 70
    0
 62
    3
  6
CONTINUOUS
370
    0
390
F
  0
LAYER
  5
5A
330
2
100
AcDbSymbolTableRecord
100
AcDbLayerTableRecord
  2
panel04
 70
    0
 62
    4
  6
CONTINUOUS
370
    0
390
F
  0
LAYER
  5
5B
330
2
100
AcDbSymbolTableRecord
100
AcDbLayerTableRecord
  2
panel05
 70
    0
 62
    5
  6
CONTINUOUS
370
    0
390
F
  0
LAYER
  5
5C
330
2
100
AcDbSymbolTableRecord
100
AcDbLayerTableRecord
  2
panel06
 70
    0
 62
    6
  6
CONTINUOUS
370
    0
390
F
  0
LAYER
  5
5D
330
2
100
AcDbSymbolTableRecord
100
AcDbLayerTableRecord
  2
panel11
 70
    0
 62
    1
  6
CONTINUOUS
370
    0
390
F
  0
LAYER
  5
5E
330
2
100
AcDbSymbolTableRecord
100
AcDbLayerTableRecord
  2
panel12
 70
    0
 62
    2
  6
CONTINUOUS
370
   -3
390
F
  0
LAYER
  5
5F
330
2
100
AcDbSymbolTableRecord
100
AcDbLayerTableRecord
  2
panel13
 70
    0
 62
    3
  6
CONTINUOUS
370
   -3
390
F
  0
LAYER
  5
60
330
2
100
AcDbSymbolTableRecord
100
AcDbLayerTableRecord
  2
panel14
 70
    0
 62
    4
  6
CONTINUOUS
370
   -3
390
F
  0
ENDTAB
  0
TABLE
  2
STYLE
  5
3
330
0
100
AcDbSymbolTable
 70
    3
  0
STYLE
  5
61
330
2
100
AcDbSymbolTableRecord
100
AcDbTextStyleTableRecord
  2
Standard
 70
    0
 40
0
 41
1
 50
0
 71
    0
 42
1
  3
txt
  4

  0
ENDTAB
  0
TABLE
  2
VIEW
  5
6
330
0
100
AcDbSymbolTable
 70
    0
  0
ENDTAB
  0
TABLE
  2
UCS
  5
7
330
0
100
AcDbSymbolTable
 70
    0
  0
ENDTAB
  0
TABLE
  2
APPID
  5
9
330
0
100
AcDbSymbolTable
 70
    1
  0
APPID
  5
12
330
9
100
AcDbSymbolTableRecord
100
AcDbRegAppTableRecord
  2
ACAD
 70
    0
  0
APPID
  5
62
330
9
100
AcDbSymbolTableRecord
100
AcDbRegAppTableRecord
  2
LibreCad
 70
    0
  0
ENDTAB
  0
TABLE
  2
DIMSTYLE
  5
A
330
0
100
AcDbSymbolTable
 70
    1
100
AcDbDimStyleTable
 71
    1
  0
DIMSTYLE
105
63
330
A
100
AcDbSymbolTableRecord
100
AcDbDimStyleTableRecord
  2
Standard
 70
    0
 40
1
 41
2.5
 42
0.625
 43
0.38
 44
1.25
 45
0
 46
0
 47
0
 48
0
 49
1
140
2.5
141
0.09
142
0
143
25.4
144
1
145
0
146
1
147
0.625
148
0
 71
    0
 72
    0
 73
    1
 74
    1
 75
    0
 76
    0
 77
    0
 78
    0
 79
    0
170
    0
171
    2
172
    0
173
    0
174
    0
175
    0
176
    0
177
    0
178
    0
179
    0
271
    2
272
    4
273
    2
274
    2
275
    0
276
    0
277
    2
278
   46
279
    0
280
    0
281
    0
282
    0
283
    1
284
    0
285
    0
286
    0
288
    0
289
    3
340
Standard
341

371
   -2
372
   -2
  0
ENDTAB
  0
TABLE
  2
BLOCK_RECORD
  5
1
330
0
100
AcDbSymbolTable
 70
    2
  0
BLOCK_RECORD
  5
1F
330
1
100
AcDbSymbolTableRecord
100
AcDbBlockTableRecord
  2
*Model_Space
 70
    0
280
    1
281
    0
  0
BLOCK_RECORD
  5
1E
330
1
100
AcDbSymbolTableRecord
100
AcDbBlockTableRecord
  2
*Paper_Space
 70
    0
280
    1
281
    0
  0
BLOCK_RECORD
  5
64
330
1
100
AcDbSymbolTableRecord
100
AcDbBlockTableRecord
  2
*D2
 70
    0
280
    1
281
    0
  0
BLOCK_RECORD
  5
67
330
1
100
AcDbSymbolTableRecord
100
AcDbBlockTableRecord
  2
*D10
 70
    0
280
    1
281
    0
  0
BLOCK_RECORD
  5
6A
330
1
100
AcDbSymbolTableRecord
100
AcDbBlockTableRecord
  2
*D1
 70
    0
280
    1
281
    0
  0
BLOCK_RECORD
  5
6D
330
1
100
AcDbSymbolTableRecord
100
AcDbBlockTableRecord
  2
*D4
 70
    0
280
    1
281
    0
  0
BLOCK_RECORD
  5
70
330
1
100
AcDbSymbolTableRecord
100
AcDbBlockTableRecord
  2
*D8
 70
    0
280
    1
281
    0
  0
BLOCK_RECORD
  5
73
330
1
100
AcDbSymbolTableRecord
100
AcDbBlockTableRecord
  2
*D3
 70
    0
280
    1
281
    0
  0
BLOCK_RECORD
  5
76
330
1
100
AcDbSymbolTableRecord
100
AcDbBlockTableRecord
  2
*D9
 70
    0
280
    1
281
    0
  0
BLOCK_RECORD
  5
79
330
1
100
AcDbSymbolTableRecord
100
AcDbBlockTableRecord
  2
*D6
 70
    0
280
    1
281
    0
  0
BLOCK_RECORD
  5
7C
330
1
100
AcDbSymbolTableRecord
100
AcDbBlockTableRecord
  2
*D11
 70
    0
280
    1
281
    0
  0
BLOCK_RECORD
  5
7F
330
1
100
AcDbSymbolTableRecord
100
AcDbBlockTableRecord
  2
*D7
 70
    0
280
    1
281
    0
  0
BLOCK_RECORD
  5
82
330
1
100
AcDbSymbolTableRecord
100
AcDbBlockTableRecord
  2
*D5
 70
    0
280
    1
281
    0
  0
ENDTAB
  0
ENDSEC
  0
SECTION
  2
BLOCKS
  0
BLOCK
  5
20
330
1F
100
AcDbEntity
  8
0
100
AcDbBlockBegin
  2
*Model_Space
 70
    0
 10
0
 20
0
 30
0
  3
*Model_Space
  1

  0
ENDBLK
  5
21
330
1F
100
AcDbEntity
  8
0
100
AcDbBlockEnd
  0
BLOCK
  5
1C
330
1B
100
AcDbEntity
  8
0
100
AcDbBlockBegin
  2
*Paper_Space
 70
    0
 10
0
 20
0
 30
0
  3
*Paper_Space
  1

  0
ENDBLK
  5
1D
330
1F
100
AcDbEntity
  8
0
100
AcDbBlockEnd
  0
BLOCK
  5
65
330
64
100
AcDbEntity
  8
0
100
AcDbBlockBegin
  2
*D2
 70
    1
 10
0
 20
0
  3
*D2
  1

  0
LINE
  5
85
100
AcDbEntity
  8
dims
  6
ByBlock
 62
    0
370
   -2
100
AcDbLine
 10
34.51486435523824
 20
13.40999999999996
 11
34.51486435523824
 21
1.784999999999966
  0
SOLID
  5
86
100
AcDbEntity
  8
dims
  6
ByBlock
 62
    0
370
   -2
100
AcDbTrace
 10
34.51486435523824
 20
13.40999999999996
 30
0
 11
34.93114901301108
 21
10.90999999999996
 31
0
 12
34.0985796974654
 22
10.90999999999996
 32
0
 13
34.0985796974654
 23
10.90999999999996
 33
0
  0
SOLID
  5
87
100
AcDbEntity
  8
dims
  6
ByBlock
 62
    0
370
   -2
100
AcDbTrace
 10
34.51486435523824
 20
-13.59000000000003
 30
0
 11
34.0985796974654
 21
-11.09000000000003
 31
0
 12
34.93114901301108
 22
-11.09000000000003
 32
0
 13
34.93114901301108
 23
-11.09000000000003
 33
0
  0
LINE
  5
88
100
AcDbEntity
  8
dims
  6
ByBlock
 62
    0
370
   -2
100
AcDbLine
 10
34.51486435523824
 20
-1.965000000000034
 11
34.51486435523824
 21
-13.59000000000003
  0
MTEXT
  5
89
100
AcDbEntity
  8
dims
  6
CONTINUOUS
 62
    0
370
   -2
100
AcDbMText
 10
34.51486435523824
 20
-0.09000000000003359
 30
0
 40
2.5
 41
3.888888888888889
 71
    5
 72
    1
  1
L11
  7
Standard
210
0
220
0
230
1
 50
0
 73
    2
 44
1
  0
LINE
  5
8A
100
AcDbEntity
  8
dims
  6
ByBlock
 62
    0
370
   -2
100
AcDbLine
 10
27.12469999666666
 20
13.40999999999996
 11
35.76486435523824
 21
13.40999999999996
  0
LINE
  5
8B
100
AcDbEntity
  8
dims
  6
ByBlock
 62
    0
370
   -2
100
AcDbLine
 10
27.12469999666666
 20
-13.59000000000003
 11
35.76486435523824
 21
-13.59000000000003
  0
ENDBLK
  5
66
330
64
100
AcDbEntity
  8
0
100
AcDbBlockEnd
  0
BLOCK
  5
68
330
67
100
AcDbEntity
  8
0
100
AcDbBlockBegin
  2
*D10
 70
    1
 10
0
 20
0
  3
*D10
  1

  0
LINE
  5
8C
100
AcDbEntity
  8
dims
  6
ByBlock
 62
    0
370
   -2
100
AcDbLine
 10
537
 20
-38.64016435857161
 11
525
 21
-38.64016435857161
  0
SOLID
  5
8D
100
AcDbEntity
  8
dims
  6
ByBlock
 62
    0
370
   -2
100
AcDbTrace
 10
532
 20
-38.64016435857161
 30
0
 11
534.5
 21
-38.22387970079877
 31
0
 12
534.5
 22
-39.05644901634445
 32
0
 13
534.5
 23
-39.05644901634445
 33
0
  0
SOLID
  5
8E
100
AcDbEntity
  8
dims
  6
ByBlock
 62
    0
370
   -2
100
AcDbTrace
 10
530
 20
-38.64016435857161
 30
0
 11
527.5
 21
-39.05644901634445
 31
0
 12
527.5
 22
-38.22387970079877
 32
0
 13
527.5
 23
-38.22387970079877
 33
0
  0
MTEXT
  5
8F
100
AcDbEntity
  8
dims
  6
CONTINUOUS
 62
    0
370
   -2
100
AcDbMText
 10
524.312244318182
 20
-38.64016435857161
 30
0
 40
2.5
 41
5.000000000000156
 71
    5
 72
    1
  1
L06
  7
Standard
210
0
220
0
230
1
 50
0
 73
    2
 44
1
  0
LINE
  5
90
100
AcDbEntity
  8
dims
  6
ByBlock
 62
    0
370
   -2
100
AcDbLine
 10
532
 20
-30.625
 11
532
 21
-39.89016435857161
  0
LINE
  5
91
100
AcDbEntity
  8
dims
  6
ByBlock
 62
    0
370
   -2
100
AcDbLine
 10
530
 20
-30.625
 11
530
 21
-39.89016435857161
  0
ENDBLK
  5
69
330
67
100
AcDbEntity
  8
0
100
AcDbBlockEnd
  0
BLOCK
  5
6B
330
6A
100
AcDbEntity
  8
0
100
AcDbBlockBegin
  2
*D1
 70
    1
 10
0
 20
0
  3
*D1
  1

  0
LINE
  5
92
100
AcDbEntity
  8
dims
  6
ByBlock
 62
    0
370
   -2
100
AcDbLine
 10
-5
 20
-44.98799847519854
 11
7
 21
-44.98799847519854
  0
SOLID
  5
93
100
AcDbEntity
  8
dims
  6
ByBlock
 62
    0
370
   -2
100
AcDbTrace
 10
0
 20
-44.98799847519854
 30
0
 11
-2.5
 21
-45.40428313297138
 31
0
 12
-2.5
 22
-44.5717138174257
 32
0
 13
-2.5
 23
-44.5717138174257
 33
0
  0
SOLID
  5
94
100
AcDbEntity
  8
dims
  6
ByBlock
 62
    0
370
   -2
100
AcDbTrace
 10
2
 20
-44.98799847519854
 30
0
 11
4.5
 21
-44.5717138174257
 31
0
 12
4.5
 22
-45.40428313297138
 32
0
 13
4.5
 23
-45.40428313297138
 33
0
  0
MTEXT
  5
95
100
AcDbEntity
  8
dims
  6
CONTINUOUS
 62
    0
370
   -2
100
AcDbMText
 10
13.2087279040404
 20
-43.11299847519854
 30
0
 40
2.5
 41
4.444444444444445
 71
    5
 72
    1
  1
L01
  7
Standard
210
0
220
0
230
1
 50
0
 73
    2
 44
1
  0
LINE
  5
96
100
AcDbEntity
  8
dims
  6
ByBlock
 62
    0
370
   -2
100
AcDbLine
 10
-1.148106374200643e-16
 20
-35.26919406915681
 11
-2.296212748401287e-16
 21
-46.23799847519854
  0
LINE
  5
97
100
AcDbEntity
  8
dims
  6
ByBlock
 62
    0
370
   -2
100
AcDbLine
 10
2
 20
-35.26919406915681
 11
2
 21
-46.23799847519854
  0
ENDBLK
  5
6C
330
6A
100
AcDbEntity
  8
0
100
AcDbBlockEnd
  0
BLOCK
  5
6E
330
6D
100
AcDbEntity
  8
0
100
AcDbBlockBegin
  2
*D4
 70
    1
 10
0
 20
0
  3
*D4
  1

  0
LINE
  5
98
100
AcDbEntity
  8
dims
  6
ByBlock
 62
    0
370
   -2
100
AcDbLine
 10
219.3262430272939
 20
-38.64016435857161
 11
207.3262430272939
 21
-38.64016435857161
  0
SOLID
  5
99
100
AcDbEntity
  8
dims
  6
ByBlock
 62
    0
370
   -2
100
AcDbTrace
 10
214.3262430272939
 20
-38.64016435857161
 30
0
 11
216.8262430272939
 21
-38.22387970079877
 31
0
 12
216.8262430272939
 22
-39.05644901634445
 32
0
 13
216.8262430272939
 23
-39.05644901634445
 33
0
  0
SOLID
  5
9A
100
AcDbEntity
  8
dims
  6
ByBlock
 62
    0
370
   -2
100
AcDbTrace
 10
212.3262430272939
 20
-38.64016435857161
 30
0
 11
209.8262430272939
 21
-39.05644901634445
 31
0
 12
209.8262430272939
 22
-38.22387970079877
 32
0
 13
209.8262430272939
 23
-38.22387970079877
 33
0
  0
MTEXT
  5
9B
100
AcDbEntity
  8
dims
  6
CONTINUOUS
 62
    0
370
   -2
100
AcDbMText
 10
208.9033026863849
 20
-36.76516435857161
 30
0
 40
2.5
 41
5.000000000000156
 71
    5
 72
    1
  1
L03
  7
Standard
210
0
220
0
230
1
 50
0
 73
    2
 44
1
  0
LINE
  5
9C
100
AcDbEntity
  8
dims
  6
ByBlock
 62
    0
370
   -2
100
AcDbLine
 10
214.3262430272939
 20
-30.625
 11
214.3262430272939
 21
-39.89016435857161
  0
LINE
  5
9D
100
AcDbEntity
  8
dims
  6
ByBlock
 62
    0
370
   -2
100
AcDbLine
 10
212.3262430272939
 20
-30.625
 11
212.3262430272939
 21
-39.89016435857161
  0
ENDBLK
  5
6F
330
6D
100
AcDbEntity
  8
0
100
AcDbBlockEnd
  0
BLOCK
  5
71
330
70
100
AcDbEntity
  8
0
100
AcDbBlockBegin
  2
*D8
 70
    1
 10
0
 20
0
  3
*D8
  1

  0
LINE
  5
9E
100
AcDbEntity
  8
dims
  6
ByBlock
 62
    0
370
   -2
100
AcDbLine
 10
437
 20
-38.64016435857161
 11
425
 21
-38.64016435857161
  0
SOLID
  5
9F
100
AcDbEntity
  8
dims
  6
ByBlock
 62
    0
370
   -2
100
AcDbTrace
 10
432
 20
-38.64016435857161
 30
0
 11
434.5
 21
-38.22387970079877
 31
0
 12
434.5
 22
-39.05644901634445
 32
0
 13
434.5
 23
-39.05644901634445
 33
0
  0
SOLID
  5
A0
100
AcDbEntity
  8
dims
  6
ByBlock
 62
    0
370
   -2
100
AcDbTrace
 10
430
 20
-38.64016435857161
 30
0
 11
427.5
 21
-39.05644901634445
 31
0
 12
427.5
 22
-38.22387970079877
 32
0
 13
427.5
 23
-38.22387970079877
 33
0
  0
MTEXT
  5
A1
100
AcDbEntity
  8
dims
  6
CONTINUOUS
 62
    0
370
   -2
100
AcDbMText
 10
424.312244318182
 20
-38.64016435857161
 30
0
 40
2.5
 41
5.000000000000156
 71
    5
 72
    1
  1
L05
  7
Standard
210
0
220
0
230
1
 50
0
 73
    2
 44
1
  0
LINE
  5
A2
100
AcDbEntity
  8
dims
  6
ByBlock
 62
    0
370
   -2
100
AcDbLine
 10
432
 20
-30.625
 11
432
 21
-39.89016435857161
  0
LINE
  5
A3
100
AcDbEntity
  8
dims
  6
ByBlock
 62
    0
370
   -2
100
AcDbLine
 10
430
 20
-30.625
 11
430
 21
-39.89016435857161
  0
ENDBLK
  5
72
330
70
100
AcDbEntity
  8
0
100
AcDbBlockEnd
  0
BLOCK
  5
74
330
73
100
AcDbEntity
  8
0
100
AcDbBlockBegin
  2
*D3
 70
    1
 10
0
 20
0
  3
*D3
  1

  0
LINE
  5
A4
100
AcDbEntity
  8
dims
  6
ByBlock
 62
    0
370
   -2
100
AcDbLine
 10
139.4406584421099
 20
-37.98928940267273
 11
136.0656584421099
 21
-37.98928940267273
  0
SOLID
  5
A5
100
AcDbEntity
  8
dims
  6
ByBlock
 62
    0
370
   -2
100
AcDbTrace
 10
139.4406584421099
 20
-37.98928940267273
 30
0
 11
136.9406584421099
 21
-38.40557406044557
 31
0
 12
136.9406584421099
 22
-37.57300474489989
 32
0
 13
136.9406584421099
 23
-37.57300474489989
 33
0
  0
SOLID
  5
A6
100
AcDbEntity
  8
dims
  6
ByBlock
 62
    0
370
   -2
100
AcDbTrace
 10
126.4406584421098
 20
-37.98928940267273
 30
0
 11
128.9406584421098
 21
-37.57300474489989
 31
0
 12
128.9406584421098
 22
-38.40557406044557
 32
0
 13
128.9406584421098
 23
-38.40557406044557
 33
0
  0
LINE
  5
A7
100
AcDbEntity
  8
dims
  6
ByBlock
 62
    0
370
   -2
100
AcDbLine
 10
129.8156584421099
 20
-37.98928940267273
 11
126.4406584421098
 21
-37.98928940267273
  0
MTEXT
  5
A8
100
AcDbEntity
  8
dims
  6
CONTINUOUS
 62
    0
370
   -2
100
AcDbMText
 10
132.9406584421099
 20
-36.11428940267273
 30
0
 40
2.5
 41
5
 71
    5
 72
    1
  1
L02
  7
Standard
210
0
220
0
230
1
 50
0
 73
    2
 44
1
  0
LINE
  5
A9
100
AcDbEntity
  8
dims
  6
ByBlock
 62
    0
370
   -2
100
AcDbLine
 10
139.4406584421099
 20
-30.625
 11
139.4406584421099
 21
-39.23928940267273
  0
LINE
  5
AA
100
AcDbEntity
  8
dims
  6
ByBlock
 62
    0
370
   -2
100
AcDbLine
 10
126.4406584421098
 20
-30.625
 11
126.4406584421098
 21
-39.23928940267273
  0
ENDBLK
  5
75
330
73
100
AcDbEntity
  8
0
100
AcDbBlockEnd
  0
BLOCK
  5
77
330
76
100
AcDbEntity
  8
0
100
AcDbBlockBegin
  2
*D9
 70
    1
 10
0
 20
0
  3
*D9
  1

  0
LINE
  5
AB
100
AcDbEntity
  8
dims
  6
ByBlock
 62
    0
370
   -2
100
AcDbLine
 10
330
 20
222.0107105973271
 11
335.5138888888889
 21
222.0107105973271
  0
SOLID
  5
AC
100
AcDbEntity
  8
dims
  6
ByBlock
 62
    0
370
   -2
100
AcDbTrace
 10
330
 20
222.0107105973271
 30
0
 11
332.5
 21
222.4269952550999
 31
0
 12
332.5
 22
221.5944259395542
 32
0
 13
332.5
 23
221.5944259395542
 33
0
  0
SOLID
  5
AD
100
AcDbEntity
  8
dims
  6
ByBlock
 62
    0
370
   -2
100
AcDbTrace
 10
347
 20
222.0107105973271
 30
0
 11
344.5
 21
221.5944259395542
 31
0
 12
344.5
 22
222.4269952550999
 32
0
 13
344.5
 23
222.4269952550999
 33
0
  0
LINE
  5
AE
100
AcDbEntity
  8
dims
  6
ByBlock
 62
    0
370
   -2
100
AcDbLine
 10
341.4861111111111
 20
222.0107105973271
 11
347
 21
222.0107105973271
  0
MTEXT
  5
AF
100
AcDbEntity
  8
dims
  6
CONTINUOUS
 62
    0
370
   -2
100
AcDbMText
 10
338.5
 20
223.8857105973271
 30
0
 40
2.5
 41
4.722222222222222
 71
    5
 72
    1
  1
L14
  7
Standard
210
0
220
0
230
1
 50
0
 73
    2
 44
1
  0
LINE
  5
B0
100
AcDbEntity
  8
dims
  6
ByBlock
 62
    0
370
   -2
100
AcDbLine
 10
330
 20
229.375
 11
330
 21
220.7607105973271
  0
LINE
  5
B1
100
AcDbEntity
  8
dims
  6
ByBlock
 62
    0
370
   -2
100
AcDbLine
 10
347
 20
229.375
 11
347
 21
220.7607105973271
  0
ENDBLK
  5
78
330
76
100
AcDbEntity
  8
0
100
AcDbBlockEnd
  0
BLOCK
  5
7A
330
79
100
AcDbEntity
  8
0
100
AcDbBlockBegin
  2
*D6
 70
    1
 10
0
 20
0
  3
*D6
  1

  0
LINE
  5
B2
100
AcDbEntity
  8
dims
  6
ByBlock
 62
    0
370
   -2
100
AcDbLine
 10
225
 20
222.0107105973271
 11
237
 21
222.0107105973271
  0
SOLID
  5
B3
100
AcDbEntity
  8
dims
  6
ByBlock
 62
    0
370
   -2
100
AcDbTrace
 10
230
 20
222.0107105973271
 30
0
 11
227.5
 21
221.5944259395542
 31
0
 12
227.5
 22
222.4269952550999
 32
0
 13
227.5
 23
222.4269952550999
 33
0
  0
SOLID
  5
B4
100
AcDbEntity
  8
dims
  6
ByBlock
 62
    0
370
   -2
100
AcDbTrace
 10
232
 20
222.0107105973271
 30
0
 11
234.5
 21
222.4269952550999
 31
0
 12
234.5
 22
221.5944259395542
 32
0
 13
234.5
 23
221.5944259395542
 33
0
  0
MTEXT
  5
B5
100
AcDbEntity
  8
dims
  6
CONTINUOUS
 62
    0
370
   -2
100
AcDbMText
 10
243.3951625631313
 20
223.8857105973271
 30
0
 40
2.5
 41
4.444444444444599
 71
    5
 72
    1
  1
L13
  7
Standard
210
0
220
0
230
1
 50
0
 73
    2
 44
1
  0
LINE
  5
B6
100
AcDbEntity
  8
dims
  6
ByBlock
 62
    0
370
   -2
100
AcDbLine
 10
230
 20
229.375
 11
230
 21
220.7607105973271
  0
LINE
  5
B7
100
AcDbEntity
  8
dims
  6
ByBlock
 62
    0
370
   -2
100
AcDbLine
 10
232
 20
229.375
 11
232
 21
220.7607105973271
  0
ENDBLK
  5
7B
330
79
100
AcDbEntity
  8
0
100
AcDbBlockEnd
  0
BLOCK
  5
7D
330
7C
100
AcDbEntity
  8
0
100
AcDbBlockBegin
  2
*D11
 70
    1
 10
0
 20
0
  3
*D11
  1

  0
LINE
  5
B8
100
AcDbEntity
  8
0
  6
ByBlock
 62
    0
370
   -2
100
AcDbLine
 10
-72.4756967649739
 20
-42.35618526934345
 11
-72.4756967649739
 21
-37.73118526934347
  0
SOLID
  5
B9
100
AcDbEntity
  8
0
  6
ByBlock
 62
    0
370
   -2
100
AcDbTrace
 10
-72.4756967649739
 20
-42.35618526934345
 30
0
 11
-72.89198142274674
 21
-39.85618526934345
 31
0
 12
-72.05941210720107
 22
-39.85618526934345
 32
0
 13
-72.05941210720107
 23
-39.85618526934345
 33
0
  0
SOLID
  5
BA
100
AcDbEntity
  8
0
  6
ByBlock
 62
    0
370
   -2
100
AcDbTrace
 10
-72.4756967649739
 20
-29.35618526934345
 30
0
 11
-72.05941210720107
 21
-31.85618526934345
 31
0
 12
-72.89198142274674
 22
-31.85618526934345
 32
0
 13
-72.89198142274674
 23
-31.85618526934345
 33
0
  0
LINE
  5
BB
100
AcDbEntity
  8
0
  6
ByBlock
 62
    0
370
   -2
100
AcDbLine
 10
-72.4756967649739
 20
-33.98118526934347
 11
-72.4756967649739
 21
-29.35618526934345
  0
MTEXT
  5
BC
100
AcDbEntity
  8
0
  6
CONTINUOUS
 62
    0
370
   -2
100
AcDbMText
 10
-72.4756967649739
 20
-35.85618526934347
 30
0
 40
2.5
 41
7.222222222222378
 71
    5
 72
    1
  1
13.00
  7
Standard
210
0
220
0
230
1
 50
0
 73
    2
 44
1
  0
LINE
  5
BD
100
AcDbEntity
  8
0
  6
ByBlock
 62
    0
370
   -2
100
AcDbLine
 10
-89.06712194934755
 20
-42.35618526934345
 11
-71.2256967649739
 21
-42.35618526934345
  0
LINE
  5
BE
100
AcDbEntity
  8
0
  6
ByBlock
 62
    0
370
   -2
100
AcDbLine
 10
-89.06712194934755
 20
-29.35618526934345
 11
-71.2256967649739
 21
-29.35618526934345
  0
ENDBLK
  5
7E
330
7C
100
AcDbEntity
  8
0
100
AcDbBlockEnd
  0
BLOCK
  5
80
330
7F
100
AcDbEntity
  8
0
100
AcDbBlockBegin
  2
*D7
 70
    1
 10
0
 20
0
  3
*D7
  1

  0
LINE
  5
BF
100
AcDbEntity
  8
dims
  6
ByBlock
 62
    0
370
   -2
100
AcDbLine
 10
341
 20
-38.64016435857161
 11
330
 21
-38.64016435857161
  0
SOLID
  5
C0
100
AcDbEntity
  8
dims
  6
ByBlock
 62
    0
370
   -2
100
AcDbTrace
 10
341
 20
-38.64016435857161
 30
0
 11
338.5
 21
-39.05644901634445
 31
0
 12
338.5
 22
-38.22387970079877
 32
0
 13
338.5
 23
-38.22387970079877
 33
0
  0
SOLID
  5
C1
100
AcDbEntity
  8
dims
  6
ByBlock
 62
    0
370
   -2
100
AcDbTrace
 10
330
 20
-38.64016435857161
 30
0
 11
332.5
 21
-38.22387970079877
 31
0
 12
332.5
 22
-39.05644901634445
 32
0
 13
332.5
 23
-39.05644901634445
 33
0
  0
MTEXT
  5
C2
100
AcDbEntity
  8
dims
  6
CONTINUOUS
 62
    0
370
   -2
100
AcDbMText
 10
324.8254261363636
 20
-38.64016435857161
 30
0
 40
2.5
 41
5.277777777777778
 71
    5
 72
    1
  1
L04
  7
Standard
210
0
220
0
230
1
 50
0
 73
    2
 44
1
  0
LINE
  5
C3
100
AcDbEntity
  8
dims
  6
ByBlock
 62
    0
370
   -2
100
AcDbLine
 10
341
 20
-30.625
 11
341
 21
-39.89016435857161
  0
LINE
  5
C4
100
AcDbEntity
  8
dims
  6
ByBlock
 62
    0
370
   -2
100
AcDbLine
 10
330
 20
-30.625
 11
330
 21
-39.89016435857161
  0
ENDBLK
  5
81
330
7F
100
AcDbEntity
  8
0
100
AcDbBlockEnd
  0
BLOCK
  5
83
330
82
100
AcDbEntity
  8
0
100
AcDbBlockBegin
  2
*D5
 70
    1
 10
0
 20
0
  3
*D5
  1

  0
LINE
  5
C5
100
AcDbEntity
  8
dims
  6
ByBlock
 62
    0
370
   -2
100
AcDbLine
 10
1.06581410364015e-14
 20
-25.60296297738295
 11
10.40262777611111
 21
-25.60296297738295
  0
SOLID
  5
C6
100
AcDbEntity
  8
dims
  6
ByBlock
 62
    0
370
   -2
100
AcDbTrace
 10
1.06581410364015e-14
 20
-25.60296297738295
 30
0
 11
2.500000000000011
 21
-25.18667831961011
 31
0
 12
2.500000000000011
 22
-26.01924763515579
 32
0
 13
2.500000000000011
 23
-26.01924763515579
 33
0
  0
SOLID
  5
C7
100
AcDbEntity
  8
dims
  6
ByBlock
 62
    0
370
   -2
100
AcDbTrace
 10
26.49969999666666
 20
-25.60296297738295
 30
0
 11
23.99969999666666
 21
-26.01924763515579
 31
0
 12
23.99969999666666
 22
-25.18667831961011
 32
0
 13
23.99969999666666
 23
-25.18667831961011
 33
0
  0
LINE
  5
C8
100
AcDbEntity
  8
dims
  6
ByBlock
 62
    0
370
   -2
100
AcDbLine
 10
16.09707222055555
 20
-25.60296297738295
 11
26.49969999666666
 21
-25.60296297738295
  0
MTEXT
  5
C9
100
AcDbEntity
  8
dims
  6
CONTINUOUS
 62
    0
370
   -2
100
AcDbMText
 10
13.24984999833333
 20
-23.72796297738295
 30
0
 40
2.5
 41
4.444444444444445
 71
    5
 72
    1
  1
L12
  7
Standard
210
0
220
0
230
1
 50
0
 73
    2
 44
1
  0
LINE
  5
CA
100
AcDbEntity
  8
dims
  6
ByBlock
 62
    0
370
   -2
100
AcDbLine
 10
1.058518936257994e-14
 20
-7.78655569777033
 11
1.042851976156137e-14
 21
-26.85296297738295
  0
LINE
  5
CB
100
AcDbEntity
  8
dims
  6
ByBlock
 62
    0
370
   -2
100
AcDbLine
 10
26.49969999666666
 20
-14.21500000000003
 11
26.49969999666666
 21
-26.85296297738295
  0
ENDBLK
  5
84
330
82
100
AcDbEntity
  8
0
100
AcDbBlockEnd
  0
ENDSEC
  0
SECTION
  2
ENTITIES
  0
DIMENSION
  5
CC
100
AcDbEntity
  8
dims
  6
ByLayer
 62
  256
370
   -1
100
AcDbDimension
  2
*D1
 10
1.999999999999999
 20
-44.98799847519854
 30
0
 11
9.361505681818182
 21
-43.11299847519854
 31
0
 70
   32
  1
L01
 71
    5
  3
Standard
 53
0
210
0
220
0
230
1
100
AcDbAlignedDimension
 13
0
 23
-34.64419406915681
 33
0
 14
2
 24
-34.64419406915681
 34
0
100
AcDbRotatedDimension
  0
LINE
  5
CD
100
AcDbEntity
  8
dims
  6
CONTINUOUS
 62
  256
370
   -1
100
AcDbLine
 10
0
 20
-34.64419406915681
 11
5
 21
-34.64419406915681
  0
LINE
  5
CE
100
AcDbEntity
  8
dims
  6
CONTINUOUS
 62
  256
370
   -1
100
AcDbLine
 10
0
 20
-34.64419406915681
 11
0
 21
-29.54023707333636
  0
LINE
  5
CF
100
AcDbEntity
  8
0
  6
CONTINUOUS
 62
  256
370
   -1
100
AcDbLine
 10
230
 20
0
 11
230
 21
260
  0
LINE
  5
D0
100
AcDbEntity
  8
0
  6
CONTINUOUS
 62
  256
370
   -1
100
AcDbLine
 10
140
 20
0
 11
140
 21
287
  0
LINE
  5
D1
100
AcDbEntity
  8
0
  6
CONTINUOUS
 62
  256
370
   -1
100
AcDbLine
 10
0
 20
0
 11
0
 21
260
  0
LINE
  5
D2
100
AcDbEntity
  8
base01
  6
ByLayer
 62
  256
370
   -1
100
AcDbLine
 10
-5
 20
5
 11
5
 21
-5
  0
LINE
  5
D3
100
AcDbEntity
  8
base01
  6
ByLayer
 62
  256
370
   -1
100
AcDbLine
 10
5
 20
5
 11
-5
 21
-5
  0
DIMENSION
  5
D4
100
AcDbEntity
  8
dims
  6
ByLayer
 62
  256
370
   -1
100
AcDbDimension
  2
*D2
 10
34.51486435523824
 20
-13.59000000000003
 30
0
 11
34.51486435523824
 21
-0.09000000000003359
 31
0
 70
   32
  1
L11
 71
    5
  3
Standard
 53
0
210
0
220
0
230
1
100
AcDbAlignedDimension
 13
26.49969999666666
 23
13.40999999999996
 33
0
 14
26.49969999666666
 24
-13.59000000000003
 34
0
 50
90
100
AcDbRotatedDimension
  0
LINE
  5
D5
100
AcDbEntity
  8
base11
  6
ByLayer
 62
  256
370
   -1
100
AcDbLine
 10
5
 20
265
 11
-5
 21
255
  0
LINE
  5
D6
100
AcDbEntity
  8
base11
  6
ByLayer
 62
  256
370
   -1
100
AcDbLine
 10
-5
 20
265
 11
5
 21
255
  0
DIMENSION
  5
D7
100
AcDbEntity
  8
dims
  6
ByLayer
 62
  256
370
   -1
100
AcDbDimension
  2
*D3
 10
126.4406584421098
 20
-37.98928940267273
 30
0
 11
132.9406584421099
 21
-36.11428940267273
 31
0
 70
   32
  1
L02
 71
    5
  3
Standard
 53
0
210
0
220
0
230
1
100
AcDbAlignedDimension
 13
139.4406584421099
 23
-30
 33
0
 14
126.4406584421098
 24
-30
 34
0
100
AcDbRotatedDimension
  0
LINE
  5
D8
100
AcDbEntity
  8
dims
  6
CONTINUOUS
 62
  256
370
   -1
100
AcDbLine
 10
126.4406584421098
 20
-30
 11
126.4406584421098
 21
-24.89604300417954
  0
LINE
  5
D9
100
AcDbEntity
  8
dims
  6
CONTINUOUS
 62
  256
370
   -1
100
AcDbLine
 10
126.4406584421098
 20
-30
 11
154.4406584421099
 21
-30
  0
LINE
  5
DA
100
AcDbEntity
  8
base02
  6
ByLayer
 62
  256
370
   -1
100
AcDbLine
 10
145
 20
-5
 11
135
 21
5
  0
DIMENSION
  5
DB
100
AcDbEntity
  8
dims
  6
ByLayer
 62
  256
370
   -1
100
AcDbDimension
  2
*D4
 10
212.3262430272939
 20
-38.64016435857161
 30
0
 11
204.7783026863848
 21
-36.76516435857161
 31
0
 70
   32
  1
L03
 71
    5
  3
Standard
 53
0
210
0
220
0
230
1
100
AcDbAlignedDimension
 13
214.3262430272939
 23
-30
 33
0
 14
212.3262430272939
 24
-30
 34
0
100
AcDbRotatedDimension
  0
LINE
  5
DC
100
AcDbEntity
  8
dims
  6
CONTINUOUS
 62
  256
370
   -1
100
AcDbLine
 10
212.3262430272939
 20
-30
 11
212.3262430272939
 21
-24.89604300417954
  0
LINE
  5
DD
100
AcDbEntity
  8
dims
  6
CONTINUOUS
 62
  256
370
   -1
100
AcDbLine
 10
212.3262430272939
 20
-30
 11
249.3262430272939
 21
-30
  0
LINE
  5
DE
100
AcDbEntity
  8
base03
  6
ByLayer
 62
  256
370
   -1
100
AcDbLine
 10
235
 20
-5
 11
225
 21
5
  0
LINE
  5
DF
100
AcDbEntity
  8
base03
  6
ByLayer
 62
  256
370
   -1
100
AcDbLine
 10
225
 20
-5
 11
235
 21
5
  0
LINE
  5
E0
100
AcDbEntity
  8
base12
  6
ByLayer
 62
  256
370
   -1
100
AcDbLine
 10
144.9999999999997
 20
265
 11
134.9999999999997
 21
255.0000000000001
  0
LINE
  5
E1
100
AcDbEntity
  8
base12
  6
ByLayer
 62
  256
370
   -1
100
AcDbLine
 10
144.9999999999997
 20
255.0000000000001
 11
134.9999999999997
 21
265
  0
DIMENSION
  5
E2
100
AcDbEntity
  8
dims
  6
ByLayer
 62
  256
370
   -1
100
AcDbDimension
  2
*D5
 10
26.49969999666666
 20
-25.60296297738295
 30
0
 11
13.24984999833333
 21
-23.72796297738295
 31
0
 70
   32
  1
L12
 71
    5
  3
Standard
 53
0
210
0
220
0
230
1
100
AcDbAlignedDimension
 13
1.07e-14
 23
-7.16155569777033
 33
0
 14
26.49969999666666
 24
-13.59000000000003
 34
0
100
AcDbRotatedDimension
  0
DIMENSION
  5
E3
100
AcDbEntity
  8
dims
  6
ByLayer
 62
  256
370
   -1
100
AcDbDimension
  2
*D6
 10
232
 20
222.0107105973271
 30
0
 11
239.547940340909
 21
223.8857105973271
 31
0
 70
   32
  1
L13
 71
    5
  3
Standard
 53
0
210
0
220
0
230
1
100
AcDbAlignedDimension
 13
230
 23
230
 33
0
 14
232
 24
230
 34
0
100
AcDbRotatedDimension
  0
LINE
  5
E4
100
AcDbEntity
  8
base13
  6
ByLayer
 62
  256
370
   -1
100
AcDbLine
 10
235
 20
255
 11
225
 21
264.9999999999999
  0
LINE
  5
E5
100
AcDbEntity
  8
base13
  6
ByLayer
 62
  256
370
   -1
100
AcDbLine
 10
235
 20
264.9999999999999
 11
225
 21
255
  0
LINE
  5
E6
100
AcDbEntity
  8
0
  6
CONTINUOUS
 62
  256
370
   -1
100
AcDbLine
 10
530
 20
0
 11
530
 21
260
  0
LINE
  5
E7
100
AcDbEntity
  8
0
  6
CONTINUOUS
 62
  256
370
   -1
100
AcDbLine
 10
430
 20
0
 11
430
 21
260
  0
LINE
  5
E8
100
AcDbEntity
  8
0
  6
CONTINUOUS
 62
  256
370
   -1
100
AcDbLine
 10
330
 20
0
 11
330
 21
260
  0
LINE
  5
E9
100
AcDbEntity
  8
0
  6
CONTINUOUS
 62
  256
370
   -1
100
AcDbLine
 10
530
 20
0
 11
530
 21
260
  0
LINE
  5
EA
100
AcDbEntity
  8
dims
  6
CONTINUOUS
 62
  256
370
   -1
100
AcDbLine
 10
341
 20
-30
 11
341
 21
-23.75527496261452
  0
LINE
  5
EB
100
AcDbEntity
  8
dims
  6
CONTINUOUS
 62
  256
370
   -1
100
AcDbLine
 10
330
 20
-30
 11
330
 21
-23.75527496261452
  0
DIMENSION
  5
EC
100
AcDbEntity
  8
dims
  6
ByLayer
 62
  256
370
   -1
100
AcDbDimension
  2
*D7
 10
330
 20
-38.64016435857161
 30
0
 11
324.8254261363636
 21
-38.64016435857161
 31
0
 70
   32
  1
L04
 71
    5
  3
Standard
 53
0
210
0
220
0
230
1
100
AcDbAlignedDimension
 13
341
 23
-30
 33
0
 14
330
 24
-30
 34
0
100
AcDbRotatedDimension
  0
LINE
  5
ED
100
AcDbEntity
  8
dims
  6
CONTINUOUS
 62
  256
370
   -1
100
AcDbLine
 10
330
 20
-30
 11
341
 21
-30
  0
LINE
  5
EE
100
AcDbEntity
  8
base04
  6
ByLayer
 62
  256
370
   -1
100
AcDbLine
 10
325
 20
5
 11
335
 21
-5
  0
LINE
  5
EF
100
AcDbEntity
  8
base04
  6
ByLayer
 62
  256
370
   -1
100
AcDbLine
 10
335
 20
5
 11
325
 21
-5
  0
LINE
  5
F0
100
AcDbEntity
  8
dims
  6
CONTINUOUS
 62
  256
370
   -1
100
AcDbLine
 10
432
 20
-30
 11
432
 21
-23.75527496261452
  0
LINE
  5
F1
100
AcDbEntity
  8
dims
  6
CONTINUOUS
 62
  256
370
   -1
100
AcDbLine
 10
430
 20
-30
 11
430
 21
-23.75527496261452
  0
DIMENSION
  5
F2
100
AcDbEntity
  8
dims
  6
ByLayer
 62
  256
370
   -1
100
AcDbDimension
  2
*D8
 10
430
 20
-38.64016435857161
 30
0
 11
420.1872443181819
 21
-38.64016435857161
 31
0
 70
   32
  1
L05
 71
    5
  3
Standard
 53
0
210
0
220
0
230
1
100
AcDbAlignedDimension
 13
432
 23
-30
 33
0
 14
430
 24
-30
 34
0
100
AcDbRotatedDimension
  0
LINE
  5
F3
100
AcDbEntity
  8
dims
  6
CONTINUOUS
 62
  256
370
   -1
100
AcDbLine
 10
430
 20
-30
 11
432
 21
-30
  0
LINE
  5
F4
100
AcDbEntity
  8
base05
  6
ByLayer
 62
  256
370
   -1
100
AcDbLine
 10
435
 20
5
 11
425
 21
-5
  0
LINE
  5
F5
100
AcDbEntity
  8
base05
  6
ByLayer
 62
  256
370
   -1
100
AcDbLine
 10
425
 20
5
 11
435
 21
-5
  0
LINE
  5
F6
100
AcDbEntity
  8
base14
  6
ByLayer
 62
  256
370
   -1
100
AcDbLine
 10
325
 20
265
 11
335
 21
255
  0
LINE
  5
F7
100
AcDbEntity
  8
base14
  6
ByLayer
 62
  256
370
   -1
100
AcDbLine
 10
335
 20
265
 11
325
 21
255
  0
DIMENSION
  5
F8
100
AcDbEntity
  8
dims
  6
ByLayer
 62
  256
370
   -1
100
AcDbDimension
  2
*D9
 10
347
 20
222.0107105973271
 30
0
 11
338.5
 21
223.8857105973271
 31
0
 70
   32
  1
L14
 71
    5
  3
Standard
 53
0
210
0
220
0
230
1
100
AcDbAlignedDimension
 13
330
 23
230
 33
0
 14
347
 24
230
 34
0
100
AcDbRotatedDimension
  0
LINE
  5
F9
100
AcDbEntity
  8
dims
  6
CONTINUOUS
 62
  256
370
   -1
100
AcDbLine
 10
330
 20
230
 11
347
 21
230
  0
LINE
  5
FA
100
AcDbEntity
  8
dims
  6
CONTINUOUS
 62
  256
370
   -1
100
AcDbLine
 10
330
 20
230
 11
330
 21
235.1039569958204
  0
LINE
  5
FB
100
AcDbEntity
  8
dims
  6
CONTINUOUS
 62
  256
370
   -1
100
AcDbLine
 10
347
 20
230
 11
347
 21
235.1039569958204
  0
DIMENSION
  5
FC
100
AcDbEntity
  8
dims
  6
ByLayer
 62
  256
370
   -1
100
AcDbDimension
  2
*D10
 10
530
 20
-38.64016435857161
 30
0
 11
520.1872443181819
 21
-38.64016435857161
 31
0
 70
   32
  1
L06
 71
    5
  3
Standard
 53
0
210
0
220
0
230
1
100
AcDbAlignedDimension
 13
532
 23
-30
 33
0
 14
530
 24
-30
 34
0
100
AcDbRotatedDimension
  0
LINE
  5
FD
100
AcDbEntity
  8
dims
  6
CONTINUOUS
 62
  256
370
   -1
100
AcDbLine
 10
532
 20
-30
 11
532
 21
-23.75527496261452
  0
LINE
  5
FE
100
AcDbEntity
  8
dims
  6
CONTINUOUS
 62
  256
370
   -1
100
AcDbLine
 10
532
 20
-30
 11
532
 21
-23.75527496261452
  0
LINE
  5
FF
100
AcDbEntity
  8
dims
  6
CONTINUOUS
 62
  256
370
   -1
100
AcDbLine
 10
530
 20
-30
 11
530
 21
-23.75527496261452
  0
LINE
  5
100
100
AcDbEntity
  8
dims
  6
CONTINUOUS
 62
  256
370
   -1
100
AcDbLine
 10
530
 20
-30
 11
532
 21
-30
  0
LINE
  5
101
100
AcDbEntity
  8
base06
  6
ByLayer
 62
  256
370
   -1
100
AcDbLine
 10
535
 20
5
 11
525
 21
-5
  0
LINE
  5
102
100
AcDbEntity
  8
base06
  6
ByLayer
 62
  256
370
   -1
100
AcDbLine
 10
525
 20
5
 11
535
 21
-5
  0
LINE
  5
103
100
AcDbEntity
  8
dims
  6
CONTINUOUS
 62
  256
370
   -1
100
AcDbLine
 10
232
 20
230
 11
232
 21
235.1039569958204
  0
LINE
  5
104
100
AcDbEntity
  8
base02
  6
ByLayer
 62
  256
370
   -1
100
AcDbLine
 10
145
 20
5
 11
135
 21
-5
  0
LINE
  5
105
100
AcDbEntity
  8
panel11
  6
CONTINUOUS
 62
  256
370
   -1
100
AcDbLine
 10
24.99999999999999
 20
260
 11
25
 21
260
  0
LINE
  5
106
100
AcDbEntity
  8
dims
  6
CONTINUOUS
 62
  256
370
   -1
100
AcDbLine
 10
230
 20
229.9999999999999
 11
230
 21
235.1039569958204
  0
LINE
  5
107
100
AcDbEntity
  8
panel11
  6
CONTINUOUS
 62
  256
370
   -1
100
AcDbLine
 10
7.1e-15
 20
260
 11
4.3e-15
 21
277
  0
LINE
  5
108
100
AcDbEntity
  8
panel11
  6
CONTINUOUS
 62
  256
370
   -1
100
AcDbLine
 10
26.49969999666666
 20
260
 11
26.49969999666666
 21
277
  0
LINE
  5
109
100
AcDbEntity
  8
panel11
  6
CONTINUOUS
 62
  256
370
   -1
100
AcDbLine
 10
7.1e-15
 20
260
 11
26.49969999666666
 21
260
  0
LINE
  5
10A
100
AcDbEntity
  8
panel12
  6
CONTINUOUS
 62
  256
370
   -1
100
AcDbLine
 10
139.9999999999997
 20
246.4999999999999
 11
139.9999999999997
 21
273.4999999999999
  0
LINE
  5
10B
100
AcDbEntity
  8
panel12
  6
CONTINUOUS
 62
  256
370
   -1
100
AcDbLine
 10
122.9999999999997
 20
273.4999999999999
 11
139.9999999999997
 21
273.4999999999999
  0
LINE
  5
10C
100
AcDbEntity
  8
panel12
  6
CONTINUOUS
 62
  256
370
   -1
100
AcDbLine
 10
122.9999999999997
 20
246.4999999999999
 11
139.9999999999997
 21
246.4999999999999
  0
LINE
  5
10D
100
AcDbEntity
  8
panel12
  6
CONTINUOUS
 62
  256
370
   -1
100
AcDbLine
 10
122.9999999999997
 20
246.4999999999999
 11
122.9999999999997
 21
273.4999999999999
  0
LINE
  5
10E
100
AcDbEntity
  8
0
  6
CONTINUOUS
 62
  256
370
   -1
100
AcDbLine
 10
-15
 20
0
 11
530
 21
0
  0
LINE
  5
10F
100
AcDbEntity
  8
dims
  6
CONTINUOUS
 62
  256
370
   -1
100
AcDbLine
 10
5
 20
-34.64419406915681
 11
5
 21
-29.54023707333636
  0
LINE
  5
110
100
AcDbEntity
  8
dims
  6
CONTINUOUS
 62
  256
370
   -1
100
AcDbLine
 10
154.4406584421099
 20
-30
 11
154.4406584421099
 21
-24.89604300417954
  0
LINE
  5
111
100
AcDbEntity
  8
dims
  6
CONTINUOUS
 62
  256
370
   -1
100
AcDbLine
 10
249.3262430272939
 20
-30
 11
249.3262430272939
 21
-24.89604300417954
  0
ARC
  5
112
100
AcDbEntity
  8
0
  6
CONTINUOUS
 62
  256
370
   -1
100
AcDbCircle
 10
-104.6921219493476
 20
-0.9579001253480328
 40
10.5
100
AcDbArc
 50
89.99999999999939
 51
270.0000000000006
  0
ARC
  5
113
100
AcDbEntity
  8
0
  6
CONTINUOUS
 62
  256
370
   -1
100
AcDbCircle
 10
-104.6921219493476
 20
-0.9579001253480328
 40
6
100
AcDbArc
 50
89.99999999999891
 51
270.000000000001
  0
LINE
  5
114
100
AcDbEntity
  8
0
  6
CONTINUOUS
 62
  256
370
   -1
100
AcDbLine
 10
-104.6921219493475
 20
-22.65704269734573
 11
-104.6921219493475
 21
20.74124244664972
  0
LINE
  5
115
100
AcDbEntity
  8
0
  6
CONTINUOUS
 62
  256
370
   -1
100
AcDbLine
 10
-104.6921219493475
 20
-6.957900125348032
 11
-89.69212194934755
 21
-6.957900125348032
  0
LINE
  5
116
100
AcDbEntity
  8
0
  6
CONTINUOUS
 62
  256
370
   -1
100
AcDbLine
 10
-104.6921219493475
 20
-11.45790012534803
 11
-89.69212194934755
 21
-11.45790012534803
  0
LINE
  5
117
100
AcDbEntity
  8
0
  6
CONTINUOUS
 62
  256
370
   -1
100
AcDbLine
 10
-104.6921219493475
 20
5.042099874651967
 11
-89.69212194934755
 21
5.042099874651967
  0
LINE
  5
118
100
AcDbEntity
  8
0
  6
CONTINUOUS
 62
  256
370
   -1
100
AcDbLine
 10
-104.6921219493475
 20
9.542099874651967
 11
-89.69212194934755
 21
9.542099874651967
  0
LINE
  5
119
100
AcDbEntity
  8
0
  6
CONTINUOUS
 62
  256
370
   -1
100
AcDbLine
 10
-89.69212194934759
 20
-11.45790012534803
 11
-89.6921219493475
 21
-6.957900125348032
  0
LINE
  5
11A
100
AcDbEntity
  8
0
  6
CONTINUOUS
 62
  256
370
   -1
100
AcDbLine
 10
-89.6921219493475
 20
5.042099874651967
 11
-89.69212194934755
 21
9.542099874651967
  0
ARC
  5
11B
100
AcDbEntity
  8
0
  6
CONTINUOUS
 62
  256
370
   -1
100
AcDbCircle
 10
-104.6921219493476
 20
-0.9579001253480328
 40
13.5
100
AcDbArc
 50
89.99999999999939
 51
148.4112311062677
  0
LINE
  5
11C
100
AcDbEntity
  8
0
  6
CONTINUOUS
 62
  256
370
   -1
100
AcDbLine
 10
-104.6921219493475
 20
12.54209987465196
 11
-89.69212194934755
 21
12.54209987465196
  0
LINE
  5
11D
100
AcDbEntity
  8
0
  6
CONTINUOUS
 62
  256
370
   -1
100
AcDbLine
 10
-104.6921219493475
 20
-14.45790012534803
 11
-89.69212194934755
 21
-14.45790012534803
  0
ARC
  5
11E
100
AcDbEntity
  8
0
  6
CONTINUOUS
 62
  256
370
   -1
100
AcDbCircle
 10
-104.6921219493476
 20
-0.9579001253480328
 40
13.5
100
AcDbArc
 50
211.5887688937322
 51
270.0000000000006
  0
LINE
  5
11F
100
AcDbEntity
  8
0
  6
CONTINUOUS
 62
  256
370
   -1
100
AcDbLine
 10
-89.69212194934755
 20
12.54209987465196
 11
-89.69212194934755
 21
9.542099874651967
  0
LINE
  5
120
100
AcDbEntity
  8
0
  6
CONTINUOUS
 62
  256
370
   -1
100
AcDbLine
 10
-89.69212194934755
 20
-11.45790012534803
 11
-89.69212194934755
 21
-14.45790012534803
  0
LINE
  5
121
100
AcDbEntity
  8
0
  6
CONTINUOUS
 62
  256
370
   -1
100
AcDbLine
 10
-116.1918219460142
 20
6.113655572422231
 11
-116.1918219460142
 21
-8.029455823118298
  0
LINE
  5
122
100
AcDbEntity
  8
0
  6
CONTINUOUS
 62
  256
370
   -1
100
AcDbLine
 10
-104.6921219493475
 20
-66.05532784134118
 11
-104.6921219493475
 21
-22.65704269734573
  0
LINE
  5
123
100
AcDbEntity
  8
0
  6
CONTINUOUS
 62
  256
370
   -1
100
AcDbLine
 10
-116.1918219460142
 20
-44.35618526934345
 11
-89.69212194934755
 21
-44.35618526934345
  0
LINE
  5
124
100
AcDbEntity
  8
0
  6
CONTINUOUS
 62
  256
370
   -1
100
AcDbLine
 10
-116.1918219460142
 20
-8.029455823118324
 11
-116.1918219460142
 21
-63.06510342485535
  0
LINE
  5
125
100
AcDbEntity
  8
0
  6
CONTINUOUS
 62
  256
370
   -1
100
AcDbLine
 10
-116.1918219460142
 20
-42.35618526934345
 11
-89.69212194934755
 21
-42.35618526934345
  0
LINE
  5
126
100
AcDbEntity
  8
0
  6
CONTINUOUS
 62
  256
370
   -1
100
AcDbLine
 10
-116.1918219460142
 20
-27.35618526934345
 11
-89.69212194934755
 21
-27.35618526934345
  0
LINE
  5
127
100
AcDbEntity
  8
0
  6
CONTINUOUS
 62
  256
370
   -1
100
AcDbLine
 10
-116.1918219460142
 20
-29.35618526934345
 11
-89.69212194934755
 21
-29.35618526934345
  0
LINE
  5
128
100
AcDbEntity
  8
0
  6
CONTINUOUS
 62
  256
370
   -1
100
AcDbLine
 10
-89.69212194934755
 20
-27.35618526934345
 11
-89.69212194934755
 21
-44.35618526934345
  0
LINE
  5
129
100
AcDbEntity
  8
0
  6
CONTINUOUS
 62
  256
370
   -1
100
AcDbLine
 10
-104.6921219493476
 20
-0.8679001253480009
 11
-137.1048309943473
 21
-0.8679001253480009
  0
LINE
  5
12A
100
AcDbEntity
  8
0
  6
CONTINUOUS
 62
  256
370
   -1
100
AcDbLine
 10
-115.191736227977
 20
-29.35618526934345
 11
-115.191736227977
 21
-42.35618526934345
  0
ARC
  5
12B
100
AcDbEntity
  8
panel01
  6
CONTINUOUS
 62
  256
370
   -1
100
AcDbCircle
 10
11.49969999666655
 20
-0.0900000000000319
 40
13.5
100
AcDbArc
 50
89.99999999999939
 51
148.4112311062677
  0
ARC
  5
12C
100
AcDbEntity
  8
panel01
  6
CONTINUOUS
 62
  256
370
   -1
100
AcDbCircle
 10
11.49969999666655
 20
-0.0900000000000319
 40
13.5
100
AcDbArc
 50
211.5887688937322
 51
270.0000000000006
  0
ARC
  5
12D
100
AcDbEntity
  8
panel01
  6
CONTINUOUS
 62
  256
370
   -1
100
AcDbCircle
 10
11.49969999666655
 20
-0.0900000000000319
 40
6
100
AcDbArc
 50
89.99999999999891
 51
270.000000000001
  0
ARC
  5
12E
100
AcDbEntity
  8
0
  6
CONTINUOUS
 62
  256
370
   -1
100
AcDbCircle
 10
11.49969999666655
 20
-0.0900000000000319
 40
10.5
100
AcDbArc
 50
89.99999999999939
 51
270.0000000000006
  0
LINE
  5
12F
100
AcDbEntity
  8
panel01
  6
CONTINUOUS
 62
  256
370
   -1
100
AcDbLine
 10
0
 20
6.981555697770232
 11
0
 21
-7.1615556977703
  0
LINE
  5
130
100
AcDbEntity
  8
panel01
  6
CONTINUOUS
 62
  256
370
   -1
100
AcDbLine
 10
11.49969999666666
 20
-13.59000000000003
 11
26.49969999666666
 21
-13.59000000000003
  0
LINE
  5
131
100
AcDbEntity
  8
0
  6
CONTINUOUS
 62
  256
370
   -1
100
AcDbLine
 10
11.49969999666666
 20
-10.59000000000003
 11
26.49969999666666
 21
-10.59000000000003
  0
LINE
  5
132
100
AcDbEntity
  8
panel01
  6
CONTINUOUS
 62
  256
370
   -1
100
AcDbLine
 10
11.49969999666666
 20
-6.090000000000031
 11
26.49969999666666
 21
-6.090000000000033
  0
LINE
  5
133
100
AcDbEntity
  8
panel01
  6
CONTINUOUS
 62
  256
370
   -1
100
AcDbLine
 10
26.49969999666666
 20
-10.59000000000003
 11
26.49969999666666
 21
-13.59000000000003
  0
LINE
  5
134
100
AcDbEntity
  8
panel01
  6
CONTINUOUS
 62
  256
370
   -1
100
AcDbLine
 10
26.49969999666661
 20
-10.59000000000003
 11
26.49969999666672
 21
-6.090000000000034
  0
LINE
  5
135
100
AcDbEntity
  8
panel01
  6
CONTINUOUS
 62
  256
370
   -1
100
AcDbLine
 10
26.49969999666666
 20
13.40999999999997
 11
26.49969999666666
 21
10.40999999999997
  0
LINE
  5
136
100
AcDbEntity
  8
panel01
  6
CONTINUOUS
 62
  256
370
   -1
100
AcDbLine
 10
11.49969999666666
 20
5.909999999999968
 11
26.49969999666666
 21
5.909999999999968
  0
LINE
  5
137
100
AcDbEntity
  8
0
  6
CONTINUOUS
 62
  256
370
   -1
100
AcDbLine
 10
11.49969999666666
 20
10.40999999999996
 11
26.49969999666666
 21
10.40999999999997
  0
LINE
  5
138
100
AcDbEntity
  8
panel01
  6
CONTINUOUS
 62
  256
370
   -1
100
AcDbLine
 10
26.49969999666672
 20
5.909999999999968
 11
26.49969999666666
 21
10.40999999999997
  0
LINE
  5
139
100
AcDbEntity
  8
panel01
  6
CONTINUOUS
 62
  256
370
   -1
100
AcDbLine
 10
11.49969999666666
 20
13.40999999999996
 11
26.49969999666666
 21
13.40999999999997
  0
LINE
  5
13A
100
AcDbEntity
  8
dims
  6
CONTINUOUS
 62
  256
370
   -1
100
AcDbLine
 10
2
 20
-34.64419406915681
 11
2
 21
-29.54023707333636
  0
DIMENSION
  5
13B
100
AcDbEntity
  8
0
  6
CONTINUOUS
 62
  256
370
   -1
100
AcDbDimension
  2
*D11
 10
-72.4756967649739
 20
-29.35618526934345
 30
0
 11
-72.4756967649739
 21
-35.85618526934347
 31
0
 70
   32
 71
    5
  3
Standard
 53
0
210
0
220
0
230
1
100
AcDbAlignedDimension
 13
-89.69212194934755
 23
-42.35618526934345
 33
0
 14
-89.69212194934755
 24
-29.35618526934345
 34
0
 50
90
100
AcDbRotatedDimension
  0
LINE
  5
13C
100
AcDbEntity
  8
dims
  6
CONTINUOUS
 62
  256
370
   -1
100
AcDbLine
 10
139.4406584421099
 20
-30
 11
139.4406584421099
 21
-24.89604300417954
  0
ARC
  5
13D
100
AcDbEntity
  8
panel02
  6
CONTINUOUS
 62
  256
370
   -1
100
AcDbCircle
 10
151.4996999966665
 20
-0.0900000000000319
 40
13.5
100
AcDbArc
 50
211.5887688937322
 51
270.0000000000006
  0
ARC
  5
13E
100
AcDbEntity
  8
panel02
  6
CONTINUOUS
 62
  256
370
   -1
100
AcDbCircle
 10
151.4996999966665
 20
-0.0900000000000319
 40
13.5
100
AcDbArc
 50
89.99999999999939
 51
148.4112311062677
  0
ARC
  5
13F
100
AcDbEntity
  8
panel02
  6
CONTINUOUS
 62
  256
370
   -1
100
AcDbCircle
 10
151.4996999966665
 20
-0.0900000000000319
 40
10.5
100
AcDbArc
 50
89.99999999999939
 51
270.0000000000006
  0
LINE
  5
140
100
AcDbEntity
  8
panel02
  6
CONTINUOUS
 62
  256
370
   -1
100
AcDbLine
 10
140
 20
6.981555697770232
 11
140
 21
-7.1615556977703
  0
ARC
  5
141
100
AcDbEntity
  8
0
  6
CONTINUOUS
 62
  256
370
   -1
100
AcDbCircle
 10
151.4996999966665
 20
-0.0900000000000319
 40
6
100
AcDbArc
 50
89.99999999999891
 51
270.000000000001
  0
LINE
  5
142
100
AcDbEntity
  8
0
  6
CONTINUOUS
 62
  256
370
   -1
100
AcDbLine
 10
151.4996999966666
 20
-6.090000000000031
 11
166.4996999966666
 21
-6.090000000000033
  0
LINE
  5
143
100
AcDbEntity
  8
panel02
  6
CONTINUOUS
 62
  256
370
   -1
100
AcDbLine
 10
151.4996999966666
 20
-13.59000000000003
 11
166.4996999966666
 21
-13.59000000000003
  0
LINE
  5
144
100
AcDbEntity
  8
panel02
  6
CONTINUOUS
 62
  256
370
   -1
100
AcDbLine
 10
151.4996999966666
 20
-10.59000000000003
 11
166.4996999966666
 21
-10.59000000000003
  0
LINE
  5
145
100
AcDbEntity
  8
panel02
  6
CONTINUOUS
 62
  256
370
   -1
100
AcDbLine
 10
166.4996999966666
 20
-10.59000000000003
 11
166.4996999966666
 21
-13.59000000000003
  0
LINE
  5
146
100
AcDbEntity
  8
0
  6
CONTINUOUS
 62
  256
370
   -1
100
AcDbLine
 10
166.4996999966666
 20
-10.59000000000003
 11
166.4996999966667
 21
-6.090000000000034
  0
LINE
  5
147
100
AcDbEntity
  8
0
  6
CONTINUOUS
 62
  256
370
   -1
100
AcDbLine
 10
151.4996999966666
 20
5.909999999999968
 11
166.4996999966666
 21
5.909999999999968
  0
LINE
  5
148
100
AcDbEntity
  8
panel02
  6
CONTINUOUS
 62
  256
370
   -1
100
AcDbLine
 10
151.4996999966666
 20
13.40999999999996
 11
166.4996999966666
 21
13.40999999999997
  0
LINE
  5
149
100
AcDbEntity
  8
panel02
  6
CONTINUOUS
 62
  256
370
   -1
100
AcDbLine
 10
151.4996999966666
 20
10.40999999999996
 11
166.4996999966666
 21
10.40999999999997
  0
LINE
  5
14A
100
AcDbEntity
  8
0
  6
CONTINUOUS
 62
  256
370
   -1
100
AcDbLine
 10
166.4996999966667
 20
5.909999999999968
 11
166.4996999966666
 21
10.40999999999997
  0
LINE
  5
14B
100
AcDbEntity
  8
panel02
  6
CONTINUOUS
 62
  256
370
   -1
100
AcDbLine
 10
166.4996999966666
 20
13.40999999999997
 11
166.4996999966666
 21
10.40999999999997
  0
ARC
  5
14C
100
AcDbEntity
  8
panel03
  6
CONTINUOUS
 62
  256
370
   -1
100
AcDbCircle
 10
241.4996999966665
 20
-0.0900000000000319
 40
13.5
100
AcDbArc
 50
211.5887688937322
 51
270.0000000000006
  0
ARC
  5
14D
100
AcDbEntity
  8
panel03
  6
CONTINUOUS
 62
  256
370
   -1
100
AcDbCircle
 10
241.4996999966665
 20
-0.0900000000000319
 40
13.5
100
AcDbArc
 50
89.99999999999939
 51
148.4112311062677
  0
ARC
  5
14E
100
AcDbEntity
  8
0
  6
CONTINUOUS
 62
  256
370
   -1
100
AcDbCircle
 10
241.4996999966665
 20
-0.0900000000000319
 40
10.5
100
AcDbArc
 50
89.99999999999939
 51
270.0000000000006
  0
LINE
  5
14F
100
AcDbEntity
  8
panel03
  6
CONTINUOUS
 62
  256
370
   -1
100
AcDbLine
 10
230
 20
6.981555697770232
 11
230
 21
-7.1615556977703
  0
ARC
  5
150
100
AcDbEntity
  8
panel03
  6
CONTINUOUS
 62
  256
370
   -1
100
AcDbCircle
 10
241.4996999966665
 20
-0.0900000000000319
 40
6
100
AcDbArc
 50
89.99999999999891
 51
270.000000000001
  0
LINE
  5
151
100
AcDbEntity
  8
panel03
  6
CONTINUOUS
 62
  256
370
   -1
100
AcDbLine
 10
241.4996999966666
 20
-6.090000000000031
 11
256.4996999966666
 21
-6.090000000000033
  0
LINE
  5
152
100
AcDbEntity
  8
panel03
  6
CONTINUOUS
 62
  256
370
   -1
100
AcDbLine
 10
241.4996999966666
 20
-13.59000000000003
 11
256.4996999966666
 21
-13.59000000000003
  0
LINE
  5
153
100
AcDbEntity
  8
0
  6
CONTINUOUS
 62
  256
370
   -1
100
AcDbLine
 10
241.4996999966666
 20
-10.59000000000003
 11
256.4996999966666
 21
-10.59000000000003
  0
LINE
  5
154
100
AcDbEntity
  8
panel03
  6
CONTINUOUS
 62
  256
370
   -1
100
AcDbLine
 10
256.4996999966666
 20
-10.59000000000003
 11
256.4996999966666
 21
-13.59000000000003
  0
LINE
  5
155
100
AcDbEntity
  8
panel03
  6
CONTINUOUS
 62
  256
370
   -1
100
AcDbLine
 10
256.4996999966666
 20
-10.59000000000003
 11
256.4996999966667
 21
-6.090000000000034
  0
LINE
  5
156
100
AcDbEntity
  8
panel03
  6
CONTINUOUS
 62
  256
370
   -1
100
AcDbLine
 10
241.4996999966666
 20
5.909999999999968
 11
256.4996999966666
 21
5.909999999999968
  0
LINE
  5
157
100
AcDbEntity
  8
panel03
  6
CONTINUOUS
 62
  256
370
   -1
100
AcDbLine
 10
241.4996999966666
 20
13.40999999999996
 11
256.4996999966666
 21
13.40999999999997
  0
LINE
  5
158
100
AcDbEntity
  8
0
  6
CONTINUOUS
 62
  256
370
   -1
100
AcDbLine
 10
241.4996999966666
 20
10.40999999999996
 11
256.4996999966666
 21
10.40999999999997
  0
LINE
  5
159
100
AcDbEntity
  8
panel03
  6
CONTINUOUS
 62
  256
370
   -1
100
AcDbLine
 10
256.4996999966667
 20
5.909999999999968
 11
256.4996999966666
 21
10.40999999999997
  0
LINE
  5
15A
100
AcDbEntity
  8
panel03
  6
CONTINUOUS
 62
  256
370
   -1
100
AcDbLine
 10
256.4996999966666
 20
13.40999999999997
 11
256.4996999966666
 21
10.40999999999997
  0
LINE
  5
15B
100
AcDbEntity
  8
0
  6
CONTINUOUS
 62
  256
370
   -1
100
AcDbLine
 10
0
 20
6.981555697770253
 11
0
 21
277
  0
LINE
  5
15C
100
AcDbEntity
  8
panel11
  6
CONTINUOUS
 62
  256
370
   -1
100
AcDbLine
 10
0
 20
277
 11
26.49969999666666
 21
277
  0
LINE
  5
15D
100
AcDbEntity
  8
0
  6
CONTINUOUS
 62
  256
370
   -1
100
AcDbLine
 10
12.49969999666655
 20
-13.59000000000003
 11
12.49969999666655
 21
348.7142803633755
  0
CIRCLE
  5
15E
100
AcDbEntity
  8
panel11
  6
CONTINUOUS
 62
  256
370
   -1
100
AcDbCircle
 10
12.49969999666655
 20
263.5
 40
1
  0
CIRCLE
  5
15F
100
AcDbEntity
  8
panel11
  6
CONTINUOUS
 62
  256
370
   -1
100
AcDbCircle
 10
12.49969999666655
 20
274
 40
1
  0
LINE
  5
160
100
AcDbEntity
  8
dims
  6
CONTINUOUS
 62
  256
370
   -1
100
AcDbLine
 10
214.3262430272939
 20
-30
 11
214.3262430272939
 21
-24.89604300417954
  0
LINE
  5
161
100
AcDbEntity
  8
0
  6
CONTINUOUS
 62
  256
370
   -1
100
AcDbLine
 10
-47.67243935831607
 20
260
 11
193.3536471653298
 21
260
  0
ARC
  5
162
100
AcDbEntity
  8
0
  6
CONTINUOUS
 62
  256
370
   -1
100
AcDbCircle
 10
-47.67243935831618
 20
260
 40
13.5
100
AcDbArc
 50
89.99999999999939
 51
148.4112311062677
  0
ARC
  5
163
100
AcDbEntity
  8
0
  6
CONTINUOUS
 62
  256
370
   -1
100
AcDbCircle
 10
-47.67243935831618
 20
260
 40
13.5
100
AcDbArc
 50
211.5887688937322
 51
270.0000000000006
  0
ARC
  5
164
100
AcDbEntity
  8
0
  6
CONTINUOUS
 62
  256
370
   -1
100
AcDbCircle
 10
-47.67243935831618
 20
260
 40
10.5
100
AcDbArc
 50
89.99999999999939
 51
270.0000000000006
  0
LINE
  5
165
100
AcDbEntity
  8
0
  6
CONTINUOUS
 62
  256
370
   -1
100
AcDbLine
 10
-59.17213935498273
 20
267.0715556977702
 11
-59.17213935498273
 21
252.9284443022297
  0
ARC
  5
166
100
AcDbEntity
  8
0
  6
CONTINUOUS
 62
  256
370
   -1
100
AcDbCircle
 10
-47.67243935831618
 20
260
 40
6
100
AcDbArc
 50
89.99999999999891
 51
270.000000000001
  0
LINE
  5
167
100
AcDbEntity
  8
0
  6
CONTINUOUS
 62
  256
370
   -1
100
AcDbLine
 10
-47.67243935831607
 20
238.3008574280022
 11
-47.67243935831607
 21
281.6991425719977
  0
LINE
  5
168
100
AcDbEntity
  8
0
  6
CONTINUOUS
 62
  256
370
   -1
100
AcDbLine
 10
-47.67243935831607
 20
254
 11
-32.67243935831606
 21
254
  0
LINE
  5
169
100
AcDbEntity
  8
0
  6
CONTINUOUS
 62
  256
370
   -1
100
AcDbLine
 10
-47.67243935831607
 20
246.4999999999999
 11
-32.67243935831606
 21
246.4999999999999
  0
LINE
  5
16A
100
AcDbEntity
  8
0
  6
CONTINUOUS
 62
  256
370
   -1
100
AcDbLine
 10
-47.67243935831607
 20
249.5
 11
-32.67243935831606
 21
249.5
  0
LINE
  5
16B
100
AcDbEntity
  8
0
  6
CONTINUOUS
 62
  256
370
   -1
100
AcDbLine
 10
-32.67243935831612
 20
249.5
 11
-32.67243935831601
 21
254
  0
LINE
  5
16C
100
AcDbEntity
  8
0
  6
CONTINUOUS
 62
  256
370
   -1
100
AcDbLine
 10
-32.67243935831606
 20
249.5
 11
-32.67243935831606
 21
246.4999999999999
  0
LINE
  5
16D
100
AcDbEntity
  8
0
  6
CONTINUOUS
 62
  256
370
   -1
100
AcDbLine
 10
-47.67243935831607
 20
273.4999999999999
 11
-32.67243935831606
 21
273.4999999999999
  0
LINE
  5
16E
100
AcDbEntity
  8
0
  6
CONTINUOUS
 62
  256
370
   -1
100
AcDbLine
 10
-47.67243935831607
 20
270.5
 11
-32.67243935831606
 21
270.5
  0
LINE
  5
16F
100
AcDbEntity
  8
0
  6
CONTINUOUS
 62
  256
370
   -1
100
AcDbLine
 10
-47.67243935831607
 20
266
 11
-32.67243935831606
 21
266
  0
LINE
  5
170
100
AcDbEntity
  8
0
  6
CONTINUOUS
 62
  256
370
   -1
100
AcDbLine
 10
-32.67243935831601
 20
266
 11
-32.67243935831606
 21
270.5
  0
LINE
  5
171
100
AcDbEntity
  8
0
  6
CONTINUOUS
 62
  256
370
   -1
100
AcDbLine
 10
-32.67243935831606
 20
273.4999999999999
 11
-32.67243935831606
 21
270.5
  0
LINE
  5
172
100
AcDbEntity
  8
0
  6
CONTINUOUS
 62
  256
370
   -1
100
AcDbLine
 10
-32.67243935831606
 20
273.4999999999999
 11
178.3752924562786
 21
273.4999999999999
  0
LINE
  5
173
100
AcDbEntity
  8
0
  6
CONTINUOUS
 62
  256
370
   -1
100
AcDbLine
 10
-32.67243935831606
 20
246.4999999999999
 11
181.783643314606
 21
246.4999999999999
  0
ENDSEC
  0
SECTION
  2
OBJECTS
  0
DICTIONARY
  5
C
330
0
100
AcDbDictionary
281
    1
  3
ACAD_GROUP
350
D
  0
DICTIONARY
  5
D
330
C
100
AcDbDictionary
281
    1
  0
ENDSEC
  0
EOF
